<svg width="162" height="48" viewBox="0 0 162 48" fill="none" xmlns="http://www.w3.org/2000/svg">
<path d="M156 0.96C157.337 0.96 158.619 1.491 159.564 2.43618C160.509 3.38137 161.04 4.66331 161.04 6V42C161.04 43.3367 160.509 44.6186 159.564 45.5638C158.619 46.509 157.337 47.04 156 47.04H6C4.66331 47.04 3.38137 46.509 2.43618 45.5638C1.491 44.6186 0.96 43.3367 0.96 42V6C0.96 4.66331 1.491 3.38137 2.43618 2.43618C3.38137 1.491 4.66331 0.96 6 0.96H156ZM156 0H6C4.4087 0 2.88258 0.632141 1.75736 1.75736C0.632141 2.88258 0 4.4087 0 6V42C0 43.5913 0.632141 45.1174 1.75736 46.2426C2.88258 47.3679 4.4087 48 6 48H156C157.591 48 159.117 47.3679 160.243 46.2426C161.368 45.1174 162 43.5913 162 42V6C162 4.4087 161.368 2.88258 160.243 1.75736C159.117 0.632141 157.591 0 156 0Z" fill="white"/>
<path d="M81.7683 26.0998C80.7607 26.1045 79.777 26.4077 78.9415 26.9709C78.1059 27.5342 77.456 28.3324 77.0737 29.2647C76.6913 30.197 76.5938 31.2217 76.7933 32.2094C76.9927 33.1971 77.4803 34.1036 78.1945 34.8144C78.9087 35.5253 79.8175 36.0086 80.8061 36.2035C81.7948 36.3983 82.819 36.2959 83.7495 35.9092C84.68 35.5225 85.4751 34.8689 86.0345 34.0307C86.5938 33.1925 86.8923 32.2075 86.8923 31.1998C86.9021 30.5253 86.7761 29.8558 86.5217 29.231C86.2674 28.6063 85.8899 28.0391 85.4118 27.5632C84.9337 27.0874 84.3648 26.7126 83.7388 26.4611C83.1129 26.2097 82.4427 26.0869 81.7683 26.0998ZM81.7683 34.2958C81.1486 34.3391 80.5302 34.1951 79.9935 33.8823C79.4567 33.5695 79.0265 33.1025 78.7587 32.5419C78.4909 31.9814 78.398 31.3533 78.4919 30.7392C78.5859 30.1251 78.8624 29.5535 79.2855 29.0986C79.7086 28.6438 80.2587 28.3268 80.8644 28.1887C81.4701 28.0507 82.1033 28.0981 82.6817 28.3247C83.2601 28.5513 83.757 28.9467 84.1077 29.4594C84.4584 29.9722 84.6468 30.5786 84.6483 31.1998C84.6676 31.5934 84.608 31.9869 84.4728 32.3571C84.3376 32.7273 84.1297 33.0667 83.8613 33.3552C83.5929 33.6438 83.2694 33.8756 82.9099 34.0372C82.5505 34.1987 82.1623 34.2867 81.7683 34.2958ZM70.5963 26.0998C69.5881 26.1022 68.6033 26.4033 67.7662 26.9651C66.9291 27.527 66.2773 28.3243 65.8931 29.2564C65.5089 30.1885 65.4096 31.2136 65.6078 32.2021C65.8059 33.1906 66.2926 34.0982 67.0063 34.8103C67.72 35.5223 68.6288 36.0069 69.6178 36.2027C70.6067 36.3985 71.6316 36.2968 72.5628 35.9104C73.494 35.5241 74.2898 34.8704 74.8496 34.032C75.4095 33.1935 75.7083 32.208 75.7083 31.1998C75.7181 30.5253 75.5921 29.8558 75.3377 29.231C75.0834 28.6063 74.7059 28.0391 74.2278 27.5632C73.7497 27.0874 73.1808 26.7126 72.5548 26.4611C71.9289 26.2097 71.2587 26.0869 70.5843 26.0998H70.5963ZM70.5963 34.2958C69.9763 34.3416 69.3569 34.1996 68.8187 33.8885C68.2805 33.5773 67.8484 33.1113 67.5787 32.5511C67.3091 31.991 67.2143 31.3626 67.3068 30.7478C67.3992 30.133 67.6746 29.5603 68.0971 29.1042C68.5196 28.6482 69.0696 28.3298 69.6755 28.1907C70.2814 28.0516 70.9152 28.0981 71.4943 28.3242C72.0735 28.5503 72.5711 28.9456 72.9225 29.4584C73.2738 29.9713 73.4626 30.5781 73.4643 31.1998C73.4836 31.5934 73.424 31.9869 73.2888 32.3571C73.1536 32.7273 72.9457 33.0667 72.6773 33.3552C72.4089 33.6438 72.0854 33.8756 71.7259 34.0372C71.3665 34.1987 70.9783 34.2867 70.5843 34.2958H70.5963ZM57.2883 27.6718V29.8318H62.4723C62.391 30.8492 61.9681 31.8092 61.2723 32.5558C60.7537 33.0841 60.1302 33.4979 59.442 33.7707C58.7538 34.0436 58.016 34.1693 57.2763 34.1398C55.7487 34.1398 54.2836 33.5329 53.2034 32.4527C52.1232 31.3725 51.5163 29.9074 51.5163 28.3798C51.5163 26.8522 52.1232 25.3871 53.2034 24.3069C54.2836 23.2267 55.7487 22.6198 57.2763 22.6198C58.7377 22.596 60.1488 23.1527 61.2003 24.1678L62.7243 22.6438C62.0145 21.925 61.1676 21.3561 60.2339 20.9706C59.3001 20.5851 58.2985 20.391 57.2883 20.3998C56.2215 20.3583 55.1573 20.5325 54.1595 20.9122C53.1616 21.2918 52.2507 21.8689 51.4812 22.609C50.7118 23.3491 50.0996 24.2369 49.6815 25.2192C49.2634 26.2016 49.0479 27.2582 49.0479 28.3258C49.0479 29.3934 49.2634 30.45 49.6815 31.4324C50.0996 32.4147 50.7118 33.3025 51.4812 34.0426C52.2507 34.7827 53.1616 35.3598 54.1595 35.7394C55.1573 36.1191 56.2215 36.2933 57.2883 36.2518C58.3155 36.2982 59.3406 36.1241 60.2948 35.7412C61.2491 35.3582 62.1102 34.7754 62.8203 34.0318C64.0775 32.6505 64.7488 30.8347 64.6923 28.9678C64.6962 28.513 64.656 28.0589 64.5723 27.6118L57.2883 27.6718ZM111.66 29.3518C111.347 28.4311 110.762 27.6271 109.982 27.0464C109.202 26.4657 108.264 26.1356 107.292 26.0998C106.636 26.0985 105.986 26.2319 105.383 26.4916C104.781 26.7514 104.237 27.132 103.788 27.61C103.338 28.088 102.991 28.6532 102.768 29.2707C102.545 29.8881 102.451 30.5447 102.492 31.1998C102.478 31.8705 102.598 32.5373 102.847 33.1602C103.096 33.7832 103.468 34.3497 103.941 34.8257C104.413 35.3017 104.977 35.6776 105.598 35.9309C106.22 36.1842 106.886 36.3096 107.556 36.2998C108.396 36.3043 109.223 36.1006 109.964 35.7069C110.706 35.3132 111.338 34.7418 111.804 34.0438L110.064 32.8438C109.805 33.2767 109.437 33.6348 108.997 33.8831C108.558 34.1313 108.061 34.2611 107.556 34.2598C107.037 34.2796 106.523 34.1426 106.082 33.8665C105.641 33.5904 105.293 33.1881 105.084 32.7118L111.912 29.8918L111.66 29.3518ZM104.7 31.0558C104.676 30.6846 104.726 30.3123 104.847 29.9607C104.969 29.6091 105.159 29.2853 105.407 29.0081C105.655 28.731 105.956 28.5061 106.292 28.3467C106.628 28.1873 106.993 28.0966 107.364 28.0798C107.751 28.0543 108.137 28.1431 108.475 28.3351C108.812 28.5271 109.085 28.8138 109.26 29.1598L104.7 31.0558ZM99.1563 35.9998H101.4V20.9998H99.1563V35.9998ZM95.4843 27.2398H95.4003C95.0621 26.8617 94.6478 26.5593 94.1846 26.3525C93.7213 26.1457 93.2196 26.0391 92.7123 26.0398C91.4009 26.1034 90.1643 26.6691 89.2587 27.6197C88.3531 28.5703 87.8479 29.8329 87.8479 31.1458C87.8479 32.4587 88.3531 33.7213 89.2587 34.6719C90.1643 35.6225 91.4009 36.1882 92.7123 36.2518C93.2208 36.2604 93.725 36.1573 94.1894 35.95C94.6539 35.7427 95.0672 35.4361 95.4003 35.0518H95.4723V35.7838C95.4723 37.7398 94.4283 38.7838 92.7483 38.7838C92.1888 38.7707 91.6458 38.5914 91.1885 38.2687C90.7312 37.946 90.3802 37.4946 90.1803 36.9718L88.2243 37.7878C88.5925 38.6834 89.2199 39.4487 90.0259 39.9853C90.832 40.522 91.78 40.8056 92.7483 40.7998C95.3763 40.7998 97.5483 39.2518 97.5483 35.4838V26.3998H95.4843V27.2398ZM92.9163 34.2958C92.1423 34.2276 91.4218 33.8719 90.897 33.2988C90.3722 32.7257 90.0812 31.9769 90.0812 31.1998C90.0812 30.4227 90.3722 29.6739 90.897 29.1008C91.4218 28.5277 92.1423 28.172 92.9163 28.1038C93.3001 28.1235 93.6761 28.2198 94.0221 28.387C94.3681 28.5543 94.6771 28.7891 94.9309 29.0776C95.1848 29.3661 95.3783 29.7025 95.5001 30.067C95.622 30.4315 95.6696 30.8166 95.6403 31.1998C95.673 31.5846 95.6274 31.9721 95.5061 32.3388C95.3848 32.7055 95.1904 33.0437 94.9347 33.3331C94.6789 33.6226 94.3671 33.8571 94.0181 34.0225C93.6692 34.188 93.2902 34.281 92.9043 34.2958H92.9163ZM122.172 20.9998H116.808V35.9998H119.052V30.3118H122.184C122.824 30.3577 123.466 30.2714 124.071 30.0583C124.675 29.8451 125.23 29.5096 125.699 29.0728C126.168 28.6359 126.543 28.1071 126.799 27.5192C127.055 26.9313 127.187 26.297 127.187 25.6558C127.187 25.0146 127.055 24.3803 126.799 23.7924C126.543 23.2045 126.168 22.6757 125.699 22.2388C125.23 21.802 124.675 21.4665 124.071 21.2533C123.466 21.0402 122.824 20.9539 122.184 20.9998H122.172ZM122.172 28.1998H119.04V23.0878H122.22C122.903 23.0878 123.558 23.359 124.04 23.8417C124.523 24.3244 124.794 24.9791 124.794 25.6618C124.794 26.3445 124.523 26.9992 124.04 27.4819C123.558 27.9646 122.903 28.2358 122.22 28.2358L122.172 28.1998ZM136.008 26.0398C135.191 25.991 134.378 26.1819 133.668 26.5891C132.958 26.9963 132.383 27.602 132.012 28.3318L134.004 29.1598C134.201 28.7978 134.498 28.5007 134.86 28.3047C135.222 28.1087 135.634 28.0222 136.044 28.0558C136.329 28.0225 136.618 28.0463 136.893 28.1258C137.169 28.2053 137.426 28.3388 137.649 28.5187C137.873 28.6985 138.058 28.921 138.195 29.1733C138.331 29.4255 138.416 29.7024 138.444 29.9878V30.1438C137.724 29.7622 136.92 29.5644 136.104 29.5678C133.956 29.5678 131.784 30.7678 131.784 32.9398C131.806 33.4029 131.919 33.8571 132.119 34.2755C132.319 34.6938 132.6 35.0679 132.947 35.3756C133.294 35.6832 133.699 35.9182 134.138 36.0667C134.577 36.2151 135.042 36.274 135.504 36.2398C136.069 36.2804 136.635 36.1681 137.142 35.9147C137.649 35.6613 138.078 35.2762 138.384 34.7998H138.456V35.9998H140.616V30.2278C140.616 27.5998 138.624 26.0758 136.068 26.0758L136.008 26.0398ZM135.732 34.2598C135 34.2598 133.98 33.8878 133.98 32.9878C133.98 31.7878 135.252 31.3918 136.38 31.3918C137.093 31.3742 137.798 31.5483 138.42 31.8958C138.345 32.5455 138.038 33.1462 137.555 33.5872C137.072 34.0282 136.446 34.2799 135.792 34.2958L135.732 34.2598ZM148.488 26.3998L145.92 32.9038H145.848L143.184 26.3998H140.784L144.78 35.4958L142.5 40.5478H144.84L150.984 26.3998H148.488ZM128.316 35.9998H130.56V20.9998H128.316V35.9998Z" fill="white"/>
<path d="M56.8294 12.3628C56.8498 12.803 56.7805 13.2427 56.6258 13.6553C56.4711 14.0678 56.2341 14.4446 55.9294 14.7628C55.5891 15.1164 55.1781 15.3942 54.7232 15.5782C54.2683 15.7622 53.7797 15.8483 53.2894 15.8308C52.5453 15.825 51.8196 15.5998 51.203 15.1833C50.5865 14.7668 50.1066 14.1776 49.8234 13.4895C49.5402 12.8015 49.4664 12.0452 49.6112 11.3154C49.756 10.5855 50.113 9.91468 50.6374 9.38685C50.982 9.03499 51.3952 8.75759 51.8514 8.57183C52.3075 8.38606 52.797 8.29588 53.2894 8.30685C53.7967 8.30516 54.299 8.40725 54.7654 8.60685C55.1996 8.78199 55.5861 9.05752 55.8934 9.41085L55.2574 10.0468C55.0179 9.76196 54.7154 9.53668 54.3738 9.38881C54.0323 9.24094 53.661 9.17454 53.2894 9.19485C52.9145 9.19301 52.5432 9.26688 52.1976 9.41203C51.852 9.55719 51.5393 9.77064 51.2782 10.0396C51.0171 10.3085 50.813 10.6274 50.6781 10.9771C50.5433 11.3269 50.4804 11.7002 50.4934 12.0748C50.4855 12.6342 50.6435 13.1834 50.9474 13.6531C51.2512 14.1227 51.6874 14.4919 52.2009 14.714C52.7143 14.936 53.2821 15.0011 53.8324 14.9008C54.3828 14.8006 54.8911 14.5397 55.2934 14.1508C55.6626 13.7507 55.8756 13.2311 55.8934 12.6868H53.2894V11.8228H56.7814C56.8134 12.0011 56.8294 12.1818 56.8294 12.3628ZM62.3254 9.36285H59.0854V11.6428H62.0374V12.5068H59.0854V14.7868H62.3254V15.6748H58.1254V8.47485H62.3254V9.36285ZM66.2614 15.6748H65.3374V9.36285H63.3214V8.47485H68.3254V9.36285H66.2614V15.6748ZM71.8534 15.6748V8.47485H72.7774V15.6748H71.8534ZM76.8814 15.6748H75.9574V9.36285H73.9414V8.47485H78.8854V9.36285H76.8814V15.6748ZM88.2574 14.7388C87.5558 15.4365 86.6067 15.8281 85.6174 15.8281C84.628 15.8281 83.6789 15.4365 82.9774 14.7388C82.2955 14.0171 81.9156 13.0618 81.9156 12.0688C81.9156 11.0759 82.2955 10.1206 82.9774 9.39885C83.3231 9.05054 83.7344 8.7741 84.1875 8.58545C84.6406 8.39681 85.1266 8.29969 85.6174 8.29969C86.1082 8.29969 86.5941 8.39681 87.0472 8.58545C87.5003 8.7741 87.9116 9.05054 88.2574 9.39885C88.9419 10.1192 89.3237 11.0751 89.3237 12.0688C89.3237 13.0626 88.9419 14.0185 88.2574 14.7388ZM83.6614 14.1388C84.1809 14.6562 84.8842 14.9467 85.6174 14.9467C86.3505 14.9467 87.0539 14.6562 87.5734 14.1388C88.0861 13.5737 88.37 12.8379 88.37 12.0748C88.37 11.3118 88.0861 10.576 87.5734 10.0108C87.0539 9.4935 86.3505 9.20304 85.6174 9.20304C84.8842 9.20304 84.1809 9.4935 83.6614 10.0108C83.1487 10.576 82.8647 11.3118 82.8647 12.0748C82.8647 12.8379 83.1487 13.5737 83.6614 14.1388ZM90.6214 15.6748V8.47485H91.7494L95.2534 14.0788V8.47485H96.1774V15.6748H95.2174L91.5574 9.80685V15.6748H90.6214Z" fill="white"/>
<path fill-rule="evenodd" clip-rule="evenodd" d="M85.6174 8.41969C85.1424 8.41969 84.6721 8.51368 84.2337 8.69624C83.7956 8.8786 83.398 9.14576 83.0636 9.48234C82.4034 10.1817 82.0356 11.1071 82.0356 12.0688C82.0356 13.0305 82.4033 13.9558 83.0633 14.6551C83.7422 15.3295 84.6604 15.7081 85.6174 15.7081C86.5745 15.7081 87.4926 15.3295 88.1716 14.6549C88.8342 13.957 89.2037 13.0313 89.2037 12.0688C89.2037 11.1063 88.8341 10.1805 88.1713 9.48249C87.8369 9.14584 87.4392 8.87863 87.0011 8.69624C86.5626 8.51367 86.0923 8.41969 85.6174 8.41969ZM84.1414 8.47467C84.6091 8.27994 85.1107 8.17969 85.6174 8.17969C86.124 8.17969 86.6256 8.27994 87.0933 8.47467C87.561 8.6694 87.9856 8.95476 88.3425 9.31431L88.3444 9.31617C89.0502 10.0589 89.4437 11.0443 89.4437 12.0688C89.4437 13.0934 89.0501 14.0788 88.3444 14.8215L88.342 14.824C87.618 15.5439 86.6384 15.9481 85.6174 15.9481C84.5963 15.9481 83.6168 15.5439 82.8928 14.8239L82.8901 14.8213C82.1872 14.0772 81.7956 13.0924 81.7956 12.0688C81.7956 11.0453 82.1872 10.0605 82.8901 9.31644L82.8922 9.31428C83.2491 8.95474 83.6737 8.6694 84.1414 8.47467ZM53.2867 8.42682C52.8107 8.41621 52.3376 8.50339 51.8966 8.68297C51.4557 8.86254 51.0563 9.13069 50.7231 9.47082L50.7225 9.47143C50.2147 9.9825 49.8691 10.6321 49.7289 11.3387C49.5887 12.0454 49.6602 12.7777 49.9344 13.4439C50.2085 14.1101 50.6732 14.6806 51.2702 15.0838C51.8672 15.4871 52.5699 15.7052 53.2903 15.7109L53.2936 15.7109C53.7672 15.7277 54.2389 15.6447 54.6782 15.467C55.1174 15.2893 55.5142 15.0211 55.8428 14.6797C56.1363 14.3733 56.3644 14.0104 56.5134 13.6131C56.6624 13.2158 56.7291 12.7923 56.7095 12.3684L56.8294 12.3628L56.7094 12.3628C56.7094 12.2222 56.6994 12.0819 56.6793 11.9428H53.4094V12.5668H56.0173L56.0133 12.6908C55.9946 13.2638 55.7703 13.8109 55.3816 14.2322L55.3769 14.2373C54.9576 14.6425 54.4276 14.9144 53.8539 15.0189C53.2802 15.1234 52.6885 15.0556 52.1532 14.8241C51.618 14.5926 51.1634 14.2078 50.8466 13.7182C50.5304 13.2295 50.3657 12.6581 50.3733 12.0761C50.3603 11.6863 50.4259 11.2979 50.5662 10.934C50.7069 10.5692 50.9198 10.2365 51.1921 9.95599C51.4645 9.67546 51.7907 9.45281 52.1511 9.3014C52.5105 9.15045 52.8966 9.0734 53.2864 9.07484C53.6754 9.05413 54.064 9.1239 54.4215 9.27869C54.7401 9.41663 55.0264 9.61873 55.2626 9.87188L55.7278 9.40669C55.4461 9.10732 55.1025 8.87224 54.7205 8.71814L54.7181 8.7172C54.2668 8.52404 53.7807 8.42521 53.2898 8.42685L53.2867 8.42682ZM56.9494 12.3601C56.9701 12.8155 56.8982 13.2705 56.7382 13.6974C56.5777 14.1252 56.332 14.5159 56.016 14.8459C55.664 15.2115 55.2387 15.4991 54.7682 15.6894C54.2982 15.8796 53.7934 15.9686 53.2868 15.9508C52.5197 15.9445 51.7715 15.7121 51.1359 15.2827C50.4997 14.853 50.0046 14.2451 49.7124 13.5352C49.4203 12.8253 49.3441 12.045 49.4935 11.292C49.6429 10.5392 50.0111 9.84712 50.5519 9.30257C50.908 8.93913 51.3349 8.65259 51.8061 8.46069C52.277 8.26893 52.7822 8.17573 53.2905 8.18685C53.8132 8.18531 54.3308 8.29052 54.8114 8.49603C55.2628 8.67829 55.6645 8.96479 55.9839 9.33211L56.0574 9.41657L55.2497 10.2242L55.1655 10.1241C54.938 9.85343 54.6506 9.63941 54.3261 9.49894C54.0017 9.35846 53.649 9.29538 53.2959 9.31467L53.2888 9.31506C52.9301 9.3133 52.5748 9.38377 52.2441 9.52267C51.9134 9.66157 51.6141 9.86582 51.3643 10.1232C51.1145 10.3805 50.9192 10.6857 50.7901 11.0203C50.6611 11.355 50.6009 11.7122 50.6133 12.0707L50.6135 12.0765C50.606 12.6122 50.7571 13.1381 51.0481 13.5879C51.3391 14.0376 51.7568 14.3912 52.2485 14.6038C52.7402 14.8165 53.2839 14.8787 53.8109 14.7828C54.3368 14.687 54.8227 14.438 55.2075 14.067C55.5277 13.7188 55.7233 13.2757 55.7658 12.8068H53.1694V11.7028H56.8817L56.8995 11.8016C56.9326 11.986 56.9493 12.1728 56.9494 12.3601ZM58.0054 8.35485H62.4454V9.48285H59.2054V11.5228H62.1574V12.6268H59.2054V14.6668H62.4454V15.7948H58.0054V8.35485ZM58.2454 8.59485V15.5548H62.2054V14.9068H58.9654V12.3868H61.9174V11.7628H58.9654V9.24285H62.2054V8.59485H58.2454ZM63.2014 8.35485H68.4454V9.48285H66.3814V15.7948H65.2174V9.48285H63.2014V8.35485ZM63.4414 8.59485V9.24285H65.4574V15.5548H66.1414V9.24285H68.2054V8.59485H63.4414ZM71.7334 8.35485H72.8974V15.7948H71.7334V8.35485ZM71.9734 8.59485V15.5548H72.6574V8.59485H71.9734ZM73.8214 8.35485H79.0054V9.48285H77.0014V15.7948H75.8374V9.48285H73.8214V8.35485ZM74.0614 8.59485V9.24285H76.0774V15.5548H76.7614V9.24285H78.7654V8.59485H74.0614ZM90.5014 8.35485H91.8159L95.1334 13.6606V8.35485H96.2974V15.7948H95.1508L91.6774 10.226V15.7948H90.5014V8.35485ZM90.7414 8.59485V15.5548H91.4374V9.38771L95.284 15.5548H96.0574V8.59485H95.3734V14.4971L91.6829 8.59485H90.7414ZM83.5767 9.92582C84.1187 9.38608 84.8525 9.08304 85.6174 9.08304C86.3823 9.08304 87.116 9.38608 87.658 9.92582L87.6624 9.93012C88.1951 10.5174 88.49 11.282 88.49 12.0748C88.49 12.8677 88.195 13.6322 87.6623 14.2195L87.6582 14.224C87.1161 14.7637 86.3823 15.0667 85.6174 15.0667C84.8525 15.0667 84.1187 14.7636 83.5767 14.2239L83.6614 14.1388L83.5725 14.2195C83.0398 13.6322 82.7447 12.8677 82.7447 12.0748C82.7447 11.282 83.0398 10.5175 83.5725 9.93022L83.5767 9.92582ZM83.7482 14.056C84.245 14.5496 84.917 14.8267 85.6174 14.8267C86.3178 14.8267 86.9897 14.5496 87.4865 14.056C87.9779 13.5132 88.25 12.8071 88.25 12.0748C88.25 11.3426 87.9779 10.6365 87.4865 10.0937C86.9897 9.60012 86.3178 9.32304 85.6174 9.32304C84.917 9.32304 84.245 9.60012 83.7482 10.0937C83.2568 10.6365 82.9847 11.3426 82.9847 12.0748C82.9847 12.8071 83.2568 13.5132 83.7482 14.056Z" fill="white"/>
<path d="M12.5945 39.2382L27.2952 23.9907L12.6068 8.77051C12.2145 9.00747 11.9717 9.55612 11.9717 10.2743V37.749C11.9769 38.4672 12.2109 38.9757 12.5945 39.2382Z" fill="white"/>
<path d="M27.822 23.5695L32.2009 19.0271L14.3686 8.88522C14.0683 8.70426 13.7273 8.60868 13.3799 8.60815L27.8202 23.5677L27.822 23.5695Z" fill="white"/>
<path d="M27.8215 24.4136L13.3354 39.4387C13.699 39.445 14.0572 39.3466 14.3699 39.1544L32.2374 28.9851L27.8215 24.4136Z" fill="white"/>
<path d="M38.6607 22.7074L32.7265 19.3262L28.228 23.9925L32.76 28.6879L38.6589 25.3158C39.9133 24.5995 39.9132 23.4201 38.6607 22.7074Z" fill="white"/>
</svg>
