<svg width="288" height="8" viewBox="0 0 288 8" fill="none" xmlns="http://www.w3.org/2000/svg">
<g clip-path="url(#clip0_261_547)">
<line x1="153.707" y1="-1.29289" x2="142.707" y2="9.70711" stroke="#4EC0DF" stroke-width="2"/>
<line x1="159.707" y1="-1.29289" x2="148.707" y2="9.70711" stroke="#4EC0DF" stroke-width="2"/>
<line x1="165.707" y1="-1.29289" x2="154.707" y2="9.70711" stroke="#4EC0DF" stroke-width="2"/>
<line x1="171.707" y1="-1.29289" x2="160.707" y2="9.70711" stroke="#4EC0DF" stroke-width="2"/>
<line x1="177.707" y1="-1.29289" x2="166.707" y2="9.70711" stroke="#4EC0DF" stroke-width="2"/>
<line x1="183.707" y1="-1.29289" x2="172.707" y2="9.70711" stroke="#4EC0DF" stroke-width="2"/>
<line x1="189.707" y1="-1.29289" x2="178.707" y2="9.70711" stroke="#4EC0DF" stroke-width="2"/>
<line x1="195.707" y1="-1.29289" x2="184.707" y2="9.70711" stroke="#4EC0DF" stroke-width="2"/>
<line x1="201.707" y1="-1.29289" x2="190.707" y2="9.70711" stroke="#4EC0DF" stroke-width="2"/>
<line x1="207.707" y1="-1.29289" x2="196.707" y2="9.70711" stroke="#4EC0DF" stroke-width="2"/>
<line x1="213.707" y1="-1.29289" x2="202.707" y2="9.70711" stroke="#4EC0DF" stroke-width="2"/>
<line x1="219.707" y1="-1.29289" x2="208.707" y2="9.70711" stroke="#4EC0DF" stroke-width="2"/>
<line x1="225.707" y1="-1.29289" x2="214.707" y2="9.70711" stroke="#4EC0DF" stroke-width="2"/>
<line x1="231.707" y1="-1.29289" x2="220.707" y2="9.70711" stroke="#4EC0DF" stroke-width="2"/>
<line x1="237.707" y1="-1.29289" x2="226.707" y2="9.70711" stroke="#4EC0DF" stroke-width="2"/>
<line x1="243.707" y1="-1.29289" x2="232.707" y2="9.70711" stroke="#4EC0DF" stroke-width="2"/>
<line x1="249.707" y1="-1.29289" x2="238.707" y2="9.70711" stroke="#4EC0DF" stroke-width="2"/>
<line x1="255.707" y1="-1.29289" x2="244.707" y2="9.70711" stroke="#4EC0DF" stroke-width="2"/>
<line x1="261.707" y1="-1.29289" x2="250.707" y2="9.70711" stroke="#4EC0DF" stroke-width="2"/>
<line x1="267.707" y1="-1.29289" x2="256.707" y2="9.70711" stroke="#4EC0DF" stroke-width="2"/>
<line x1="273.707" y1="-1.29289" x2="262.707" y2="9.70711" stroke="#4EC0DF" stroke-width="2"/>
<line x1="279.707" y1="-1.29289" x2="268.707" y2="9.70711" stroke="#4EC0DF" stroke-width="2"/>
<line x1="285.707" y1="-1.29289" x2="274.707" y2="9.70711" stroke="#4EC0DF" stroke-width="2"/>
<line x1="291.707" y1="-1.29289" x2="280.707" y2="9.70711" stroke="#4EC0DF" stroke-width="2"/>
<line x1="297.707" y1="-1.29289" x2="286.707" y2="9.70711" stroke="#4EC0DF" stroke-width="2"/>
<line x1="3.70711" y1="-1.29289" x2="-7.29289" y2="9.70711" stroke="#4EC0DF" stroke-width="2"/>
<line x1="9.70711" y1="-1.29289" x2="-1.29289" y2="9.70711" stroke="#4EC0DF" stroke-width="2"/>
<line x1="15.7071" y1="-1.29289" x2="4.70711" y2="9.70711" stroke="#4EC0DF" stroke-width="2"/>
<line x1="21.7071" y1="-1.29289" x2="10.7071" y2="9.70711" stroke="#4EC0DF" stroke-width="2"/>
<line x1="27.7071" y1="-1.29289" x2="16.7071" y2="9.70711" stroke="#4EC0DF" stroke-width="2"/>
<line x1="33.7071" y1="-1.29289" x2="22.7071" y2="9.70711" stroke="#4EC0DF" stroke-width="2"/>
<line x1="39.7071" y1="-1.29289" x2="28.7071" y2="9.70711" stroke="#4EC0DF" stroke-width="2"/>
<line x1="45.7071" y1="-1.29289" x2="34.7071" y2="9.70711" stroke="#4EC0DF" stroke-width="2"/>
<line x1="51.7071" y1="-1.29289" x2="40.7071" y2="9.70711" stroke="#4EC0DF" stroke-width="2"/>
<line x1="57.7071" y1="-1.29289" x2="46.7071" y2="9.70711" stroke="#4EC0DF" stroke-width="2"/>
<line x1="63.7071" y1="-1.29289" x2="52.7071" y2="9.70711" stroke="#4EC0DF" stroke-width="2"/>
<line x1="69.7071" y1="-1.29289" x2="58.7071" y2="9.70711" stroke="#4EC0DF" stroke-width="2"/>
<line x1="75.7071" y1="-1.29289" x2="64.7071" y2="9.70711" stroke="#4EC0DF" stroke-width="2"/>
<line x1="81.7071" y1="-1.29289" x2="70.7071" y2="9.70711" stroke="#4EC0DF" stroke-width="2"/>
<line x1="87.7071" y1="-1.29289" x2="76.7071" y2="9.70711" stroke="#4EC0DF" stroke-width="2"/>
<line x1="93.7071" y1="-1.29289" x2="82.7071" y2="9.70711" stroke="#4EC0DF" stroke-width="2"/>
<line x1="99.7071" y1="-1.29289" x2="88.7071" y2="9.70711" stroke="#4EC0DF" stroke-width="2"/>
<line x1="105.707" y1="-1.29289" x2="94.7071" y2="9.70711" stroke="#4EC0DF" stroke-width="2"/>
<line x1="111.707" y1="-1.29289" x2="100.707" y2="9.70711" stroke="#4EC0DF" stroke-width="2"/>
<line x1="117.707" y1="-1.29289" x2="106.707" y2="9.70711" stroke="#4EC0DF" stroke-width="2"/>
<line x1="123.707" y1="-1.29289" x2="112.707" y2="9.70711" stroke="#4EC0DF" stroke-width="2"/>
<line x1="129.707" y1="-1.29289" x2="118.707" y2="9.70711" stroke="#4EC0DF" stroke-width="2"/>
<line x1="135.707" y1="-1.29289" x2="124.707" y2="9.70711" stroke="#4EC0DF" stroke-width="2"/>
<line x1="141.707" y1="-1.29289" x2="130.707" y2="9.70711" stroke="#4EC0DF" stroke-width="2"/>
<line x1="147.707" y1="-1.29289" x2="136.707" y2="9.70711" stroke="#4EC0DF" stroke-width="2"/>
</g>
<defs>
<clipPath id="clip0_261_547">
<rect width="288" height="8" fill="white"/>
</clipPath>
</defs>
</svg>
