<svg width="32" height="32" viewBox="0 0 32 32" fill="none" xmlns="http://www.w3.org/2000/svg">
<path d="M24.0225 10.9825C23.8426 10.9825 23.6326 10.9227 23.4527 10.8331C22.9129 10.5343 22.7329 9.81728 23.0328 9.2795L24.7423 6.32168C24.9222 6.02291 24.8023 5.60464 24.5024 5.42538L20.9035 3.33399C20.6036 3.15473 20.1837 3.27424 20.0338 3.57301C19.7339 4.11079 19.0141 4.29005 18.4743 3.99129C17.9344 3.69252 17.7545 2.97547 18.0544 2.43769L18.0844 2.37793C18.1144 2.34806 18.1144 2.31818 18.1444 2.2883C18.9841 1.03347 20.6936 0.615197 22.0131 1.392L25.612 3.48338C26.9916 4.29005 27.4714 6.05279 26.6917 7.45701L24.9822 10.4148C24.7723 10.7733 24.4124 10.9825 24.0225 10.9825Z" fill="#94D9EC"/>
<path d="M9.8969 31.0001C9.53702 31.0001 9.20712 30.8507 8.99719 30.5519C8.72727 30.1934 8.69729 29.6855 8.93721 29.2971L11.3065 25.3235L2.63918 20.334C1.40956 19.617 0.539832 18.4817 0.179945 17.1372C-0.179943 15.7927 -2.71712e-06 14.3586 0.719772 13.1337L5.87816 4.2005C7.3477 1.69084 10.5867 0.824408 13.1059 2.2585L21.3533 7.00892C21.8932 7.30769 22.0731 8.02474 21.7732 8.56252C21.4733 9.10031 20.7535 9.27957 20.2137 8.9808L11.9663 4.23037C10.5267 3.39382 8.66729 3.90173 7.82755 5.33582L2.63918 14.269C2.2493 14.9562 2.12934 15.7629 2.33927 16.5397C2.54921 17.3165 3.05904 17.9737 3.74883 18.3621L13.4058 23.9192C13.6757 24.0686 13.8557 24.3076 13.9456 24.6064C14.0356 24.9052 13.9756 25.204 13.8257 25.4728L12.2662 28.0721L17.6045 26.6978C17.9044 26.638 18.2043 26.6679 18.4442 26.8173L20.0337 27.7136C20.7235 28.102 21.5333 28.2215 22.313 28.0124C23.0928 27.8032 23.7526 27.2953 24.1425 26.6082L29.3308 17.675C29.7207 16.9878 29.8407 16.1811 29.6307 15.4043C29.4208 14.6275 28.911 13.9702 28.2212 13.5818L23.4227 10.8332C22.8828 10.5344 22.7029 9.81735 23.0028 9.27957C23.3027 8.74179 24.0225 8.56252 24.5623 8.86129L29.3608 11.61C30.5904 12.327 31.4602 13.4623 31.8201 14.8068C32.1799 16.1513 32 17.5853 31.2802 18.8103L26.0918 27.7435C25.3721 28.9684 24.2324 29.8349 22.8829 30.1934C21.5033 30.5519 20.0937 30.3727 18.8641 29.6556L17.6945 28.9684L10.1668 30.9104C10.1068 31.0001 9.98688 31.0001 9.8969 31.0001Z" fill="#94D9EC"/>
<path d="M11.0364 14.5379C10.9765 14.4483 10.9465 14.3586 10.9165 14.2391C10.3167 11.2514 12.1161 9.13019 14.1255 8.65216C16.0149 8.204 18.2942 9.16006 19.1339 12.2971C19.2839 12.8349 18.954 13.3727 18.4141 13.5221C17.8743 13.6715 17.3345 13.3428 17.1845 12.805C16.7347 11.1618 15.745 10.3253 14.5753 10.5942C13.4957 10.863 12.536 12.0581 12.8959 13.8209C13.0158 14.3586 12.6559 14.8964 12.1161 15.0159C11.6662 15.1056 11.2464 14.8964 11.0364 14.5379Z" fill="#94D9EC"/>
<path d="M19.2539 19.2584C19.2239 19.1986 19.1939 19.1389 19.1639 19.0791C18.984 18.5413 19.2839 17.9737 19.7937 17.7944C21.5032 17.2268 22.073 15.7927 21.7431 14.7171C21.3832 13.5818 20.1536 13.1336 18.5041 13.5818C17.9643 13.7312 17.4245 13.4025 17.2745 12.8647C17.1246 12.3269 17.4545 11.7892 17.9943 11.6398C21.1433 10.8032 23.1227 12.2971 23.6925 14.1494C24.2923 16.1213 23.3626 18.7505 20.4235 19.7065C19.9737 19.8559 19.4938 19.6767 19.2539 19.2584Z" fill="#94D9EC"/>
<path d="M12.4161 21.5292C12.3561 21.4395 12.3261 21.32 12.2961 21.2304L11.3964 16.7489C11.2764 16.2111 11.6363 15.6733 12.1762 15.5538C12.716 15.4343 13.2558 15.7928 13.3758 16.3306L14.0656 19.7067L17.2446 18.6311C17.7844 18.4518 18.3542 18.7207 18.5342 19.2585C18.7141 19.7963 18.4442 20.364 17.9044 20.5432L13.6457 21.9773C13.3758 22.067 13.0759 22.0371 12.806 21.8877C12.656 21.7981 12.5061 21.6786 12.4161 21.5292Z" fill="#94D9EC"/>
</svg>
