<svg width="32" height="32" viewBox="0 0 32 32" fill="none" xmlns="http://www.w3.org/2000/svg">
<rect width="32" height="32" rx="4" fill="#D4649A"/>
<path fill-rule="evenodd" clip-rule="evenodd" d="M19.853 20.7383C18.4672 20.7383 17.1444 20.3858 16.0105 19.7843C15.8635 19.7014 15.7165 19.6184 15.5696 19.5355C15.5486 19.5148 15.5276 19.494 15.4856 19.494C15.3596 19.4111 15.2546 19.3488 15.1286 19.2659C15.1076 19.2452 15.0866 19.2244 15.0446 19.2244C14.7717 19.0378 14.5197 18.8304 14.2887 18.6023C14.2677 18.5815 14.2467 18.5608 14.2047 18.5193C14.0997 18.4156 13.9948 18.3119 13.9108 18.229C13.8898 18.2083 13.8688 18.1875 13.8688 18.1875C13.7638 18.0631 13.6378 17.9387 13.5538 17.8142C13.5328 17.7935 13.5118 17.7728 13.5118 17.752C13.4278 17.6483 13.3438 17.5446 13.2598 17.4202C13.2388 17.3787 13.2179 17.358 13.1969 17.3165C13.1129 17.1921 13.0079 17.0469 12.9239 16.9225C12.8399 16.7773 12.7559 16.6529 12.6719 16.5077C12.6509 16.4663 12.6299 16.4455 12.6089 16.404C12.5459 16.2796 12.4829 16.1759 12.4409 16.0515C12.42 16.01 12.399 15.9893 12.399 15.9478C12.336 15.8026 12.273 15.6575 12.21 15.4916C12.21 15.4708 12.189 15.4501 12.189 15.4294C12.147 15.3049 12.105 15.1598 12.063 15.0353C12.042 14.9939 12.042 14.9524 12.021 14.9109C11.979 14.7865 11.958 14.6413 11.916 14.5169C11.916 14.4961 11.895 14.4547 11.895 14.4339C11.853 14.268 11.832 14.1229 11.811 13.957C11.811 13.9155 11.811 13.874 11.79 13.8325C11.769 13.7081 11.769 13.5837 11.748 13.4385C11.748 13.397 11.748 13.3348 11.727 13.2933C11.706 13.1274 11.706 12.9615 11.706 12.7956C11.706 12.6297 11.706 12.4638 11.727 12.2979C11.727 12.2564 11.727 12.1942 11.748 12.1527C11.769 12.0283 11.769 11.8832 11.79 11.7587C11.79 11.7172 11.79 11.6758 11.811 11.6343C11.832 11.4684 11.874 11.3025 11.895 11.1573C11.895 11.1366 11.916 11.0951 11.916 11.0744C11.937 10.9499 11.979 10.8048 12.021 10.6803C12.042 10.6389 12.042 10.5974 12.063 10.5559C12.105 10.4108 12.147 10.2863 12.189 10.1619C12.189 10.1412 12.21 10.1204 12.21 10.0997C12.273 9.95452 12.336 9.78861 12.399 9.64345C12.42 9.60197 12.4409 9.58123 12.4409 9.53976C12.5039 9.41533 12.5459 9.31164 12.6089 9.18721C12.6299 9.14573 12.6509 9.125 12.6719 9.08352C12.7559 8.93835 12.8399 8.79319 12.9239 8.66876C13.0079 8.52359 13.0919 8.39916 13.1969 8.27474C13.2179 8.23326 13.2388 8.21252 13.2598 8.17105C13.3438 8.06736 13.4278 7.94293 13.5118 7.83924C13.5328 7.8185 13.5538 7.79776 13.5538 7.77702C13.6588 7.65259 13.7638 7.52817 13.8688 7.40374C13.8898 7.383 13.8898 7.36226 13.9108 7.36226C14.0158 7.25857 14.0997 7.15488 14.2047 7.07193C14.2257 7.05119 14.2467 7.03045 14.2887 6.98898C14.5407 6.76086 14.7927 6.55348 15.0446 6.36684C15.0656 6.3461 15.0866 6.32536 15.1286 6.30462C15.2336 6.22167 15.3596 6.13872 15.4856 6.0765C15.5066 6.05576 15.5276 6.03503 15.5696 6.03503C15.7165 5.95207 15.8635 5.86912 16.0105 5.78617C14.8556 5.18477 13.5538 4.83222 12.147 4.83222C7.63255 4.74927 4 8.33695 4 12.7542C4 12.8993 4 13.0445 4.021 13.1896H4V13.7081C4 14.4132 4.10499 15.3879 4.7769 17.5032C6.07874 21.4641 12.357 27.25 16.0105 27.25C19.685 27.25 25.1864 21.8374 26.9501 17.6898C27.916 15.4086 27.979 14.1229 27.979 13.7081C27.979 13.5629 27.979 13.4178 27.958 13.2933C27.727 17.4409 24.1995 20.7383 19.853 20.7383Z" fill="white"/>
<path opacity="0.3" d="M19.853 4.75C18.4672 4.75 17.1444 5.10255 16.0105 5.70395C18.5722 7.05192 20.294 9.70639 20.294 12.7341C20.294 15.7826 18.5722 18.4164 16.0105 19.7643C17.1654 20.3657 18.4672 20.7183 19.853 20.7183C24.3675 20.7183 28 17.1513 28 12.7341C28 8.33768 24.3675 4.75 19.853 4.75Z" fill="white"/>
<path opacity="0.7" d="M20.294 12.7549C20.294 9.70644 18.5722 7.0727 16.0105 5.72473C15.8635 5.80768 15.7166 5.89064 15.5696 5.97359C15.5486 5.99433 15.5276 6.01506 15.4856 6.01506C15.3596 6.09802 15.2546 6.16023 15.1286 6.24318C15.1076 6.26392 15.0866 6.28466 15.0446 6.3054C14.7717 6.49204 14.5197 6.69942 14.2887 6.92754C14.2677 6.94828 14.2467 6.96901 14.2047 7.01049C14.0998 7.11418 13.9948 7.21787 13.9108 7.30082C13.8898 7.32156 13.8688 7.3423 13.8688 7.3423C13.7638 7.46673 13.6378 7.59116 13.5538 7.71558C13.5328 7.73632 13.5118 7.75706 13.5118 7.7778C13.4278 7.88149 13.3439 7.98518 13.2599 8.10961C13.2389 8.15108 13.2179 8.17182 13.1969 8.2133C13.1129 8.33772 13.0079 8.48289 12.9239 8.60732C12.8399 8.75249 12.7559 8.87691 12.6719 9.02208C12.6509 9.06356 12.6299 9.08429 12.6089 9.12577C12.546 9.2502 12.483 9.35389 12.441 9.47832C12.42 9.51979 12.399 9.54053 12.399 9.58201C12.336 9.72717 12.273 9.87234 12.21 10.0382C12.21 10.059 12.189 10.0797 12.189 10.1005C12.147 10.2249 12.105 10.3701 12.063 10.4945C12.042 10.536 12.042 10.5774 12.021 10.6189C11.979 10.7433 11.958 10.8885 11.916 11.0129C11.916 11.0337 11.895 11.0751 11.895 11.0959C11.853 11.2618 11.832 11.407 11.811 11.5729C11.811 11.6143 11.811 11.6558 11.79 11.6973C11.769 11.8217 11.769 11.9461 11.7481 12.0913C11.7481 12.1328 11.7481 12.195 11.7271 12.2365C11.7061 12.4024 11.7061 12.5683 11.7061 12.7342C11.7061 12.9001 11.7061 13.066 11.7271 13.2319C11.7271 13.2734 11.7271 13.3356 11.7481 13.3771C11.769 13.5015 11.769 13.6467 11.79 13.7711C11.79 13.8126 11.79 13.854 11.811 13.8955C11.832 14.0614 11.874 14.2273 11.895 14.3725C11.895 14.3932 11.916 14.4347 11.916 14.4554C11.937 14.5799 11.979 14.725 12.021 14.8495C12.042 14.8909 12.042 14.9324 12.063 14.9739C12.105 15.1191 12.147 15.2435 12.189 15.3679C12.189 15.3887 12.21 15.4094 12.21 15.4301C12.273 15.5753 12.336 15.7412 12.399 15.8864C12.42 15.9278 12.441 15.9486 12.441 15.9901C12.504 16.1145 12.546 16.2182 12.6089 16.3426C12.6299 16.3841 12.6509 16.4048 12.6719 16.4463C12.7559 16.5915 12.8399 16.7366 12.9239 16.8611C13.0079 17.0062 13.0919 17.1307 13.1969 17.2551C13.2179 17.2966 13.2389 17.3173 13.2599 17.3588C13.3439 17.4625 13.4278 17.5869 13.5118 17.6906C13.5328 17.7113 13.5538 17.7321 13.5538 17.7528C13.6588 17.8772 13.7638 18.0017 13.8688 18.1261C13.8898 18.1468 13.8898 18.1676 13.9108 18.1676C14.0158 18.2712 14.0998 18.3749 14.2047 18.4579C14.2257 18.4786 14.2467 18.4994 14.2887 18.5408C14.5407 18.769 14.7927 18.9763 15.0446 19.163C15.0656 19.1837 15.0866 19.2045 15.1286 19.2045C15.2336 19.2874 15.3596 19.3704 15.4856 19.4326C15.5066 19.4533 15.5276 19.4741 15.5696 19.4741C15.7166 19.557 15.8635 19.64 16.0105 19.7229C18.5512 18.4371 20.294 15.8034 20.294 12.7549Z" fill="white"/>
</svg>
