<svg width="20" height="21" viewBox="0 0 20 21" fill="none" xmlns="http://www.w3.org/2000/svg">
<path d="M18.742 12.045C18.065 12.225 17.366 12.316 16.665 12.316C14.53 12.316 12.525 11.486 11.019 9.98C9.01101 7.972 8.22 5.013 8.955 2.257C9.047 1.912 8.948 1.544 8.696 1.292C8.44401 1.04 8.077 0.938 7.73 1.034C6.028 1.489 4.47601 2.382 3.241 3.616C-0.656995 7.514 -0.656995 13.859 3.241 17.759C5.13 19.648 7.642 20.689 10.313 20.689C12.984 20.689 15.495 19.649 17.383 17.76C18.619 16.523 19.513 14.969 19.966 13.269C20.058 12.924 19.958 12.556 19.706 12.304C19.454 12.051 19.085 11.951 18.742 12.045ZM15.97 16.346C14.459 17.857 12.45 18.689 10.314 18.689C8.177 18.689 6.168 17.856 4.656 16.345C1.538 13.226 1.538 8.15 4.656 5.031C5.25801 4.429 5.954 3.929 6.716 3.548C6.494 6.433 7.53 9.32 9.606 11.396C11.674 13.465 14.533 14.516 17.454 14.287C17.072 15.046 16.571 15.743 15.97 16.346Z" fill="#273B63"/>
</svg>
