<svg width="191" height="32" viewBox="0 0 191 32" fill="none" xmlns="http://www.w3.org/2000/svg">
<g clip-path="url(#clip0_10_2201)">
<path d="M81.2954 16.0234C81.2954 10.8814 85.1406 6.93304 90.2978 6.93304C93.6454 6.93304 96.5406 8.67766 97.8978 11.3864L94.7311 13.2688C93.9621 11.6619 92.3335 10.6059 90.2525 10.6059C87.2668 10.6059 84.9597 12.9015 84.9597 16.0234C84.9597 19.1454 87.2216 21.4409 90.2525 21.4409C92.2883 21.4409 93.9621 20.385 94.7763 18.7781L97.943 20.6145C96.4954 23.3233 93.6002 25.1138 90.2978 25.1138C85.1406 25.1138 81.2954 21.1196 81.2954 16.0234Z" fill="white"/>
<path d="M98.1692 16.0234C98.1692 10.8814 102.195 6.93304 107.172 6.93304C112.193 6.93304 116.174 10.8814 116.174 16.0234C116.174 21.1196 112.193 25.1138 107.172 25.1138C102.195 25.1138 98.1692 21.1196 98.1692 16.0234ZM112.464 16.0234C112.464 12.8556 110.157 10.56 107.172 10.56C104.186 10.56 101.879 12.8556 101.879 16.0234C101.879 19.1913 104.186 21.4868 107.172 21.4868C110.157 21.4868 112.464 19.1454 112.464 16.0234Z" fill="white"/>
<path d="M133.591 14.0493V24.6547H129.881V14.4166C129.881 11.7996 128.388 10.4223 126.081 10.4223C123.684 10.4223 121.738 11.8914 121.738 15.3807V24.6547H118.074V7.34626C121.014 7.34626 121.738 8.21857 121.738 9.54999C122.869 7.75946 124.724 6.88715 127.031 6.88715C130.831 6.93306 133.591 9.54999 133.591 14.0493Z" fill="white"/>
<path d="M141.1 10.9732V19.2831C141.1 21.4868 142.548 21.4409 145.307 21.3032V24.6547C139.653 25.3434 137.391 23.7365 137.391 19.2831V10.9732H134.631V7.34623H137.391V6.3821C137.391 4.04064 138.25 3.44379 139.969 2.84695L141.055 2.52557V7.34623H145.262V10.9273H141.1V10.9732Z" fill="white"/>
<path d="M146.438 2.38786C146.438 1.05644 147.479 0.000488281 148.791 0.000488281C150.103 0.000488281 151.143 1.05644 151.143 2.38786C151.143 3.67337 150.103 4.77524 148.791 4.77524C147.524 4.77524 146.438 3.67337 146.438 2.38786ZM146.981 7.34626H150.645V24.6088H146.981V7.34626Z" fill="white"/>
<path d="M169.51 7.34627C168.424 7.34627 167.791 7.62174 167.429 8.03493C167.067 8.49405 166.976 9.1368 166.976 9.87138C165.664 7.98902 163.674 6.84125 161.05 6.84125C156.255 6.84125 152.455 10.8355 152.455 15.748C152.455 20.7064 156.255 24.6547 161.05 24.6547C163.674 24.6547 165.664 23.507 166.976 21.6246V23.8742C166.976 26.9044 165.076 28.649 161.91 28.649C158.924 28.649 157.702 27.4553 156.933 25.9862L154.264 28.6949C155.802 30.8986 158.472 32.0464 161.819 32.0464C166.298 32.0464 170.595 29.4754 170.595 23.8742V7.34627H169.51ZM161.593 21.2573C158.472 21.2573 156.164 18.9618 156.164 15.8398C156.164 12.7179 158.472 10.4223 161.593 10.4223C164.714 10.4223 167.022 12.7179 167.022 15.8398C167.022 18.9618 164.669 21.2573 161.593 21.2573Z" fill="white"/>
<path d="M172.495 16.0234C172.495 10.8814 176.522 6.93304 181.498 6.93304C186.519 6.93304 190.5 10.8814 190.5 16.0234C190.5 21.1196 186.519 25.1138 181.498 25.1138C176.522 25.1138 172.495 21.1196 172.495 16.0234ZM186.836 16.0234C186.836 12.8556 184.529 10.56 181.543 10.56C178.557 10.56 176.25 12.8556 176.25 16.0234C176.25 19.1913 178.557 21.4868 181.543 21.4868C184.483 21.4868 186.836 19.1454 186.836 16.0234Z" fill="white"/>
<path d="M78.8072 14.3706V25.0679H75.1429V14.6002C75.1429 12.1669 73.831 10.8355 71.8405 10.8355C69.6691 10.8355 68.131 12.2587 68.131 15.3807V25.0679H64.4667V14.6002C64.4667 12.1669 63.2905 10.8355 61.2548 10.8355C59.1739 10.8355 57.4548 12.2587 57.4548 15.3807V25.0679H53.7905V7.80536C56.3239 7.80536 57.4548 8.3563 57.4548 9.87136C58.5405 8.17265 60.2143 7.34625 62.3405 7.34625C64.5572 7.34625 66.1858 8.3563 67.181 10.055C68.312 8.26447 70.1215 7.34625 72.3834 7.34625C76.2286 7.34625 78.8072 10.055 78.8072 14.3706Z" fill="white"/>
<path d="M47.9097 22.451C47.9097 23.4152 47.6835 24.1497 47.2763 24.6547C46.7335 25.3434 45.8739 25.5271 45.4216 25.5271C45.4216 25.5271 45.3763 25.5271 45.3311 25.5271H45.2858H45.2406C44.0644 25.5271 43.2954 24.517 43.2501 24.4252L43.2049 24.3793C40.0382 20.5228 32.1668 12.672 28.4573 8.99908C28.5025 8.95317 28.5478 8.95317 28.593 8.90726C28.7739 8.76953 28.9097 8.63179 29.0906 8.49406C29.2263 8.40224 29.3168 8.31041 29.4525 8.17268C29.5882 8.08086 29.6787 7.98904 29.7692 7.89722C29.8597 7.85131 29.9049 7.75948 29.9954 7.71357C31.3525 6.56579 32.6644 5.46393 33.5692 4.72935C33.6597 4.63753 33.7954 4.54571 33.8858 4.45389C33.9763 4.36206 34.112 4.27024 34.2025 4.17842C34.5192 3.90295 34.7001 3.76522 34.7001 3.76522C34.7001 3.76522 36.5549 2.11242 38.9073 3.44384C39.2239 3.62749 39.5406 3.94887 39.9025 4.40798C39.9477 4.45389 39.993 4.4998 40.0382 4.59162L40.0835 4.63753C40.1739 4.72935 40.2644 4.86709 40.3549 5.00482C40.4454 5.14255 40.5358 5.28029 40.6263 5.41802C40.6716 5.50984 40.7168 5.55575 40.762 5.64757C40.8073 5.69349 40.8525 5.7394 40.8525 5.83122C40.8977 5.92304 40.9882 6.06077 41.0335 6.1526C41.0787 6.24442 41.1239 6.33624 41.1692 6.42806C41.2144 6.47397 41.2144 6.51988 41.2597 6.5658C41.3501 6.70353 41.3954 6.84126 41.4858 6.97899C41.4858 7.02491 41.5311 7.02491 41.5311 7.07082C41.7573 7.48402 42.0287 7.94313 42.3001 8.44815C42.3454 8.53997 42.4358 8.6777 42.4811 8.76953C42.5263 8.86135 42.5716 8.99908 42.662 9.0909C42.7525 9.27455 42.843 9.45819 42.9335 9.64184C42.9335 9.68775 42.9787 9.73366 42.9787 9.77957C43.0692 9.9173 43.1144 10.1009 43.2049 10.2846C43.4763 10.7896 43.7025 11.3405 43.9287 11.8915C44.0192 12.121 44.1549 12.3506 44.2454 12.6261C44.6073 13.4065 44.9239 14.2329 45.2406 15.0134C45.4216 15.4266 45.6025 15.8857 45.7382 16.2989C45.8287 16.5285 45.9192 16.7121 45.9644 16.9417C46.1454 17.4008 46.3263 17.8599 46.462 18.319C46.5525 18.5486 46.5977 18.7322 46.6882 18.9618C46.7787 19.1913 46.8239 19.375 46.9144 19.6045C47.0049 19.7882 47.0501 20.0177 47.0954 20.2014C47.1406 20.385 47.2311 20.6146 47.2763 20.7982C47.3216 20.936 47.3668 21.0737 47.412 21.2114C47.5477 21.5787 47.6382 21.9919 47.7287 22.3133C47.8192 22.1756 47.8644 22.2674 47.9097 22.451Z" fill="white"/>
<path d="M47.0501 26.4003C46.6429 26.9972 46.3262 27.2726 46.3262 27.2726C46.3262 27.2726 44.9239 28.8795 42.481 28.8795C42.481 28.8795 40.8524 28.9254 39.5858 28.0531C39.1334 27.7317 37.7762 26.8594 35.8762 25.8494C34.8358 25.2984 33.5691 24.6557 32.2572 24.1048C32.212 24.1048 32.212 24.0588 32.1667 24.0588C30.8096 23.462 29.4072 22.9111 27.9596 22.4979C27.9596 22.4979 27.9143 22.4979 27.8691 22.452C26.0143 21.901 24.1143 21.5337 22.3953 21.5337C15.4286 21.5337 3.21434 28.604 3.21434 28.604C3.21434 28.604 2.85243 28.8336 2.30957 28.8336C1.76672 28.8336 0.771478 28.5581 0.50005 27.3185C0.364335 26.7676 1.08815 24.8852 2.98815 21.7633C2.98815 21.7633 2.98815 21.7174 3.03338 21.7174C4.02862 20.0646 5.34053 18.0904 7.01434 15.7489C9.32148 12.4893 12.3072 8.63273 16.1524 4.08754C16.1524 4.08754 17.1024 2.93976 18.7762 2.93976C18.7762 2.93976 20.1334 2.84794 21.4001 3.90389C21.8524 4.27118 23.7524 6.10762 26.4667 8.72455C31.4881 13.637 39.2691 21.4878 42.2548 25.2066C42.2548 25.2066 43.3858 26.8135 45.2405 26.8135H45.331C45.3762 26.8135 45.4667 26.8135 45.512 26.8135C45.7834 26.7676 46.4167 26.7217 47.0501 26.4003Z" fill="white"/>
<path opacity="0.2" d="M47.9097 22.451C47.9097 23.4152 47.6835 24.1497 47.2763 24.6547C46.7335 25.3434 45.8739 25.5271 45.4216 25.5271C45.4216 25.5271 45.3763 25.5271 45.3311 25.5271H45.2858H45.2406C44.0644 25.5271 43.2954 24.517 43.2501 24.4252L43.2049 24.3793C40.0382 20.5228 32.1668 12.672 28.4573 8.99908C28.5025 8.95317 28.5478 8.95317 28.593 8.90726C28.7739 8.76953 28.9097 8.63179 29.0906 8.49406C29.2263 8.40224 29.3168 8.31042 29.4525 8.17268C29.5882 8.08086 29.6787 7.98904 29.7692 7.89722C32.212 8.95317 37.2787 11.3865 46.1001 16.804C46.2811 17.2631 46.462 17.7222 46.5977 18.1813C46.6882 18.4108 46.7335 18.5945 46.8239 18.824C46.9144 19.0536 46.9597 19.2372 47.0501 19.4668C47.1406 19.6504 47.1858 19.88 47.2311 20.0636C47.2763 20.2473 47.3668 20.4768 47.412 20.6605C47.4573 20.7982 47.5025 20.936 47.5477 21.0737C47.6835 21.441 47.7739 21.8542 47.8644 22.1756C47.8192 22.1756 47.8644 22.2674 47.9097 22.451Z" fill="white"/>
<path opacity="0.2" d="M27.8691 22.4051C26.0143 21.8542 24.1143 21.4869 22.3953 21.4869C15.4286 21.5328 3.21434 28.6031 3.21434 28.6031C3.21434 28.6031 2.85243 28.8326 2.30957 28.8326C1.76672 28.8326 0.771478 28.5572 0.50005 27.3176C0.364335 26.7666 1.08815 24.8843 2.98815 21.7623C2.98815 21.7623 2.98815 21.7164 3.03338 21.7164C13.6191 18.0435 26.7381 22.0378 27.8691 22.4051Z" fill="white"/>
</g>
<defs>
<clipPath id="clip0_10_2201">
<rect width="190" height="32" fill="white" transform="translate(0.5 0.000488281)"/>
</clipPath>
</defs>
</svg>
