<svg width="28" height="28" viewBox="0 0 28 28" fill="none" xmlns="http://www.w3.org/2000/svg">
<path d="M13.9866 0.666748C6.62929 0.666748 0.666626 6.63075 0.666626 13.9868C0.666626 19.6294 4.17729 24.4534 9.13329 26.3948C9.01596 25.3414 8.91196 23.7201 9.17863 22.5708C9.4213 21.5308 10.7413 15.9494 10.7413 15.9494C10.7413 15.9494 10.3426 15.1507 10.3426 13.9707C10.3426 12.1201 11.416 10.7374 12.7533 10.7374C13.8906 10.7374 14.4386 11.5908 14.4386 12.6134C14.4386 13.7574 13.7106 15.4654 13.336 17.0494C13.0226 18.3748 14.0013 19.4561 15.308 19.4561C17.6746 19.4561 19.496 16.9601 19.496 13.3561C19.496 10.1667 17.204 7.93742 13.932 7.93742C10.1413 7.93742 7.91595 10.7801 7.91595 13.7174C7.91595 14.8614 8.35729 16.0894 8.90796 16.7574C9.01596 16.8894 9.03196 17.0041 8.99996 17.1388C8.89863 17.5588 8.67329 18.4641 8.63063 18.6494C8.57196 18.8934 8.43729 18.9454 8.18396 18.8281C6.52129 18.0534 5.48129 15.6214 5.48129 13.6667C5.48129 9.46541 8.53329 5.60675 14.2826 5.60675C18.904 5.60675 22.4946 8.89876 22.4946 13.3001C22.4946 17.8921 19.6 21.5841 15.5826 21.5841C14.232 21.5841 12.964 20.8841 12.5293 20.0561C12.5293 20.0561 11.8613 22.5987 11.6986 23.2214C11.3986 24.3787 10.5866 25.8294 10.044 26.7148C11.2906 27.1001 12.6146 27.3081 13.988 27.3081C21.344 27.3081 27.308 21.3441 27.308 13.9881C27.308 6.63208 21.3426 0.666748 13.9866 0.666748Z" fill="#94D9EC"/>
</svg>
