<svg width="32" height="32" viewBox="0 0 32 32" fill="none" xmlns="http://www.w3.org/2000/svg">
<path d="M16.1026 0H16.0615C7.22974 0 0 7.11568 0 16C0 18.5501 0.616171 21.1003 1.84851 23.4036C1.97175 23.6504 1.97175 23.856 1.93067 24.1028L0.0410775 30.8072C-0.123235 31.4242 0.328624 32 0.944795 32C1.02695 32 1.10911 32 1.19126 31.9589L7.88699 30.0668C7.96915 30.0257 8.01023 30.0257 8.09238 30.0257C8.25669 30.0257 8.42101 30.0668 8.54424 30.1491C10.8857 31.383 13.3504 32 15.9794 32C24.729 32 32.0409 24.9255 31.9998 15.9177C32.0409 7.15682 24.8522 0 16.1026 0ZM27.6866 8.55527C27.6866 8.55527 29.7405 10.9409 29.7405 17.1105C29.7405 17.1105 29.0011 9.50129 25.2219 8.5964C24.4004 8.76093 19.7586 12.0103 18.3208 13.0386C18.0333 13.2442 17.7457 13.3676 17.4171 13.4087L10.7214 14.6427C8.70855 15.0129 7.14759 16.6581 6.90112 18.6735L6.65465 20.6478C6.61357 21.0591 6.9422 21.4293 7.35298 21.4293H12.4877C12.8164 21.4293 13.0628 21.1003 12.9396 20.8123C12.7342 20.3599 12.652 19.9075 12.652 19.3728C12.652 18.0566 13.2682 16.946 14.2952 16.2468C14.9113 15.7943 15.6507 15.5064 16.5134 15.5064C17.0885 15.5064 17.6636 15.6298 18.1565 15.9177C19.471 16.5347 20.3336 17.8509 20.3336 19.3728C20.3336 19.8663 20.2515 20.3599 20.0461 20.8123C19.9229 21.1003 20.1693 21.4293 20.498 21.4293H28.6725C28.426 21.964 28.1385 22.4987 27.892 22.9923C27.8509 23.0334 27.8509 23.0746 27.8099 23.0746C27.7277 23.2391 27.5634 23.4859 27.4402 23.6093L27.3991 23.6504C27.3169 23.7738 27.1937 23.9383 27.1115 24.0617C27.0705 24.1028 27.0705 24.144 27.0294 24.144C26.9061 24.3085 26.7829 24.4319 26.6597 24.5964C26.6186 24.6787 26.5364 24.7198 26.4954 24.8021C26.4132 24.8843 26.3721 24.9666 26.29 25.0488C26.2078 25.1311 26.0846 25.2545 26.0024 25.3368C25.9613 25.3779 25.9613 25.419 25.9203 25.419C23.4145 28.0103 19.9229 29.6144 16.0205 29.6144C13.3915 29.6144 10.9268 28.874 8.83179 27.599C6.86004 28.1748 3.86134 28.9974 2.79331 29.3265C2.58792 29.3676 2.46468 29.2031 2.50576 29.0386C2.87546 27.7635 4.02565 23.9383 4.23104 22.9512C2.91654 20.7712 2.17714 18.1388 2.25929 15.3419C2.54684 8.26735 8.25669 2.42674 15.3632 2.13882C20.5801 1.89203 25.1398 4.52442 27.6866 8.55527Z" fill="#94D9EC"/>
<path d="M18.9099 20.3577C19.4655 19.0145 18.8285 17.4746 17.4871 16.9182C16.1456 16.3618 14.6077 16.9996 14.052 18.3428C13.4964 19.686 14.1334 21.2259 15.4748 21.7823C16.8163 22.3387 18.3542 21.7009 18.9099 20.3577Z" fill="#94D9EC"/>
</svg>
