<svg width="32" height="32" viewBox="0 0 32 32" fill="none" xmlns="http://www.w3.org/2000/svg">
<path opacity="0.82" d="M27.082 6.72021C27.0046 6.72021 26.8499 6.7599 26.7726 6.7599C26.8886 7.07739 26.9273 7.43456 26.9273 7.79173C26.9273 9.41885 25.6511 10.7682 24.0268 10.7682C23.2921 10.7682 22.596 10.4904 22.1319 10.0141C21.7452 10.411 21.3971 10.8475 21.0491 11.2444C21.3585 11.8 21.5518 12.435 21.7838 13.0699C22.944 12.3953 24.3362 11.8 26.0765 11.2047C29.2476 10.2522 30.2144 6.7599 27.082 6.72021Z" fill="#B7E5F2"/>
<path d="M18.9607 10.0934C16.6791 7.75195 13.1985 7.15666 10.1048 8.46629L20.3916 19.0227H5.77345C5.30938 20.2133 5 21.3642 5 22.7532C5 24.2215 5.38672 25.5708 5.88946 26.8408C7.24299 29.8966 9.95006 31.9999 13.1212 31.9999C16.2923 31.9999 18.9994 29.8569 20.3529 26.8805C20.8943 25.6502 21.2424 24.2215 21.2424 22.7928C21.2811 21.4038 21.0104 20.3323 20.5463 19.1814C21.7838 16.0463 21.2424 12.5142 18.9607 10.0934ZM15.9829 28.3488C15.1708 29.1822 14.3974 29.7378 13.1212 29.7378C11.845 29.7378 11.1102 29.2616 10.2594 28.3488C9.79537 27.8726 8.86724 26.563 8.86724 26.563H17.2591C17.3365 26.563 16.4857 27.8726 15.9829 28.3488Z" fill="#B7E5F2"/>
<path d="M14.552 17.991C14.552 18.0306 14.552 18.0306 14.552 18.0703H17.4911L12.309 12.7524C11.961 13.0302 11.6903 13.3874 11.4583 13.7843C13.1985 14.3002 14.552 16.0067 14.552 17.991Z" fill="#B7E5F2"/>
<path opacity="0.61" d="M22.1318 10.014C22.5959 10.4902 23.292 10.768 24.0268 10.768C25.6124 10.768 26.9272 9.4584 26.9272 7.7916C26.9272 7.39474 26.8499 7.07725 26.7725 6.75977C25.2643 6.95819 23.6401 8.38688 22.1318 10.014Z" fill="#B7E5F2"/>
<path opacity="0.57" d="M11.0329 11.4824C10.7235 11.5618 10.4141 11.6412 10.1434 11.7999C10.8009 12.2365 11.2263 12.9111 11.3423 13.7445C11.3423 13.7445 11.3423 13.7445 11.381 13.7445H11.4196C11.6517 13.3477 11.9224 12.9905 12.2704 12.7127L11.0329 11.4824Z" fill="#B7E5F2"/>
<path d="M26.7338 6.75989C26.3084 5.64869 25.2643 4.85498 24.0268 4.85498C22.4412 4.85498 21.1263 6.16461 21.1263 7.83141C21.1263 8.7045 21.4744 9.45853 22.0932 10.0141C23.64 8.38701 25.2643 6.95832 26.7338 6.75989C26.7338 6.79958 26.7338 6.79958 26.7338 6.75989C26.7725 6.75989 26.7725 6.75989 26.7338 6.75989Z" fill="#B7E5F2"/>
<path opacity="0.82" d="M11.4196 13.7446C11.4196 13.7843 11.4196 13.7843 11.4196 13.7446C11.4196 13.7843 11.4196 13.7843 11.4196 13.7446C11.381 13.7843 11.381 13.7843 11.4196 13.7446C11.4196 13.8637 11.4196 14.0621 11.4196 14.1812C11.4196 15.6099 10.4528 16.7607 9.17662 16.9989C9.02193 17.0385 8.7899 17.0385 8.63521 17.0385C8.40317 17.0385 8.20981 16.9989 8.01645 16.9592C7.97778 16.9592 7.93911 16.9195 7.90044 16.9195C7.78442 16.8798 7.59106 16.8401 7.47504 16.7607C7.43637 16.7211 7.3977 16.7211 7.35903 16.6814C7.24301 16.602 7.08832 16.5226 6.9723 16.4036C6.93363 16.3639 6.93363 16.3639 6.89495 16.3242C6.77894 16.2051 6.62425 16.0464 6.50823 15.8877C6.19885 16.5226 6.00549 17.1576 6.00549 17.9116C6.00549 17.9513 6.00549 17.9513 6.00549 17.991H14.5134H14.6294C14.6294 17.9513 14.6294 17.9513 14.6294 17.9116C14.5521 16.0067 13.1986 14.3002 11.4196 13.7446Z" fill="#B7E5F2"/>
<path d="M11.3809 13.7446C11.3809 13.7446 11.3809 13.7843 11.3809 13.7446C11.3809 13.7843 11.3809 13.7843 11.3809 13.7446C11.4205 13.7843 11.4205 13.7843 11.3809 13.7446C11.4205 13.7843 11.3809 13.7446 11.3809 13.7446Z" fill="#B7E5F2"/>
<path d="M11.4204 13.7842C11.4204 13.7445 11.3807 13.7445 11.4204 13.7842C11.3807 13.7445 11.3807 13.7445 11.4204 13.7842C11.3807 13.7445 11.4204 13.7842 11.4204 13.7842Z" fill="#B7E5F2"/>
<path d="M6.43083 15.9671C6.39216 15.9671 6.39216 15.9671 6.43083 15.9671C6.43083 15.9274 6.46949 15.8877 6.46949 15.8877C7.20427 14.4987 8.59648 13.5859 10.2207 13.5859C10.6074 13.5859 10.9555 13.6256 11.3035 13.7447C11.1875 12.951 10.7621 12.2763 10.1434 11.8398C10.1434 11.8398 10.1434 11.8398 10.182 11.8398C9.75664 11.5223 9.21523 11.3635 8.63515 11.3635C7.12692 11.3635 5.85074 12.6335 5.85074 14.2209C5.81207 14.8956 6.04411 15.4512 6.43083 15.9671C6.39216 15.9671 6.39216 15.9671 6.43083 15.9671Z" fill="#B7E5F2"/>
<path d="M11.3036 13.705C11.3423 13.705 11.3423 13.705 11.381 13.7447C11.2649 12.9509 10.8395 12.2366 10.1821 11.8C10.1821 11.8 10.1821 11.8 10.1434 11.8C10.7235 12.2763 11.1876 12.9509 11.3036 13.705Z" fill="#B7E5F2"/>
<path d="M9.17664 16.9988C10.4528 16.721 11.4196 15.5702 11.4196 14.1812C11.4196 15.6098 10.4528 16.7607 9.17664 16.9988Z" fill="#B7E5F2"/>
<path d="M6.43086 15.967C6.39219 15.967 6.39219 15.967 6.43086 15.967C6.54688 16.1258 6.70157 16.2845 6.81758 16.4036C6.66289 16.2448 6.5082 16.1258 6.43086 15.967Z" fill="#B7E5F2"/>
<path d="M10.2208 13.5461C10.5689 13.5461 10.9556 13.5858 11.3036 13.6652C10.9556 13.6255 10.5689 13.5461 10.2208 13.5461C8.59659 13.5064 7.20438 14.4589 6.4696 15.8082C7.20438 14.4986 8.63526 13.5461 10.2208 13.5461Z" fill="#B7E5F2"/>
<path d="M11.3809 13.7445C11.3423 13.7445 11.3423 13.7048 11.3036 13.7048C11.3036 13.7445 11.3423 13.7445 11.3809 13.7445Z" fill="#B7E5F2"/>
<path d="M11.4195 14.1812C11.4195 14.0621 11.4195 13.8637 11.3809 13.7446C11.3809 13.9034 11.4195 14.0621 11.4195 14.1812Z" fill="#B7E5F2"/>
<path d="M6.39221 15.9669C6.43088 15.9272 6.43089 15.9272 6.43089 15.8875C6.43089 15.8478 6.43088 15.9272 6.39221 15.9669Z" fill="#B7E5F2"/>
<path opacity="0.61" d="M6.85635 16.4433C6.97237 16.5227 7.12706 16.602 7.24308 16.7211C7.28175 16.7608 7.32043 16.7608 7.3591 16.8005C7.47512 16.8798 7.66848 16.9195 7.7845 16.9592C7.82317 16.9592 7.86184 16.9989 7.90051 16.9989C8.13254 17.0386 8.28724 17.0783 8.51927 17.0783C8.67396 17.0783 8.90599 17.0783 9.06068 17.0386C10.3369 16.7608 11.3037 15.6099 11.3037 14.2209C11.3037 14.1018 11.3037 13.9034 11.265 13.7843C11.2263 13.7843 11.2263 13.7843 11.1877 13.7843C10.8396 13.705 10.4916 13.6653 10.1048 13.6653C8.51927 13.6653 7.08839 14.5781 6.35362 15.9274C6.35362 15.9671 6.31494 16.0067 6.31494 16.0067C6.43096 16.1655 6.58565 16.3242 6.70166 16.4433C6.81768 16.4036 6.85635 16.4433 6.85635 16.4433Z" fill="#B7E5F2"/>
<path d="M9.17666 16.9988C9.02198 17.0385 8.78994 17.0385 8.63525 17.0385C8.78994 17.1178 9.02198 17.0782 9.17666 16.9988Z" fill="#B7E5F2"/>
<path d="M11.3036 13.7446C11.3423 13.7446 11.3423 13.7843 11.3809 13.7843C11.3423 13.7446 11.3036 13.7446 11.3036 13.7446Z" fill="#B7E5F2"/>
<path d="M16.5629 7.35519C16.9883 7.51394 17.375 7.75205 17.7231 7.99017C18.4192 7.3552 18.9993 6.52179 18.9606 5.41059C18.9606 2.75165 17.4524 1.71982 16.2535 2.35479C15.0547 2.98976 15.0547 4.73594 16.1375 5.84714C16.6016 6.36305 16.6403 6.87896 16.5629 7.35519Z" fill="#B7E5F2"/>
<path d="M12.193 2.39452C12.193 2.43421 12.2317 2.4739 12.2317 2.4739C12.3091 2.59296 12.3864 2.79138 12.4637 2.91044C12.7344 3.54541 12.8891 4.1407 13.0052 4.85504C13.0052 4.85504 13.0052 4.85504 12.9665 4.85504V4.89473C13.3919 4.45818 13.7013 3.78353 13.7013 3.06918C13.7013 1.6405 12.5798 0.529297 11.2262 0.529297C11.0715 0.529297 10.8395 0.568983 10.6848 0.608669C11.3422 1.12458 11.8063 1.71987 12.193 2.39452Z" fill="#B7E5F2"/>
<g opacity="0.82">
<path opacity="0.82" d="M12.9665 4.93433C12.5411 5.37087 11.8837 5.64867 11.2263 5.64867C9.83407 5.64867 8.75125 4.53747 8.75125 3.10879C8.75125 2.95004 8.75124 2.75162 8.78991 2.63256C8.82858 2.47382 8.86726 2.31507 8.90594 2.15633C9.21532 1.44198 9.79539 0.926071 10.5302 0.687957C11.2263 1.08481 11.729 1.6801 12.1157 2.35476C11.7677 1.64041 11.2649 1.08481 10.6075 0.64827C10.2595 0.410156 9.91142 0.251413 9.48602 0.132356C6.08285 -0.859787 4.88401 3.98187 7.59108 6.1249C8.24851 6.64082 8.94461 7.2361 9.5247 7.7917C10.5302 7.2361 11.6903 6.91862 13.0052 6.87893C13.1599 6.20427 13.1212 5.60899 12.9665 4.93433Z" fill="#B7E5F2"/>
<path opacity="0.82" d="M12.4639 2.94995C12.7346 3.58492 12.8893 4.2199 12.9666 4.89455C12.9666 4.89455 12.9666 4.89455 13.0053 4.89455C12.8893 4.2199 12.7346 3.54524 12.4639 2.94995Z" fill="#B7E5F2"/>
</g>
<path opacity="0.61" d="M11.265 5.64868C11.9611 5.64868 12.5412 5.37088 13.0052 4.89465C12.9279 4.21999 12.7345 3.58502 12.5025 2.95005C12.4638 2.79131 12.3865 2.63256 12.2705 2.51351C12.2705 2.47382 12.2318 2.43414 12.2318 2.43414C11.8451 1.71979 11.3423 1.16419 10.6462 0.767334C9.91146 1.00545 9.2927 1.52136 9.02199 2.23571C8.98332 2.35477 8.90598 2.55319 8.90598 2.71194C8.86731 2.87068 8.8673 3.02942 8.8673 3.18816C8.78996 4.53748 9.87279 5.64868 11.265 5.64868Z" fill="#B7E5F2"/>
<path d="M20.0049 3.42638C20.6623 3.82324 20.2756 4.61695 20.0435 5.09318C20.0435 5.09318 21.6678 4.18041 21.4358 2.87078C21.1651 1.56115 20.3143 1.20398 19.7729 1.64052C19.1928 2.11675 19.3474 2.95015 20.0049 3.42638Z" fill="#B7E5F2"/>
</svg>
