<svg width="162" height="48" viewBox="0 0 162 48" fill="none" xmlns="http://www.w3.org/2000/svg">
<path d="M156 0.96C157.337 0.96 158.619 1.491 159.564 2.43618C160.509 3.38137 161.04 4.66331 161.04 6V42C161.04 43.3367 160.509 44.6186 159.564 45.5638C158.619 46.509 157.337 47.04 156 47.04H6C4.66331 47.04 3.38137 46.509 2.43618 45.5638C1.491 44.6186 0.96 43.3367 0.96 42V6C0.96 4.66331 1.491 3.38137 2.43618 2.43618C3.38137 1.491 4.66331 0.96 6 0.96H156ZM156 0H6C4.4087 0 2.88258 0.632141 1.75736 1.75736C0.632141 2.88258 0 4.4087 0 6V42C0 43.5913 0.632141 45.1174 1.75736 46.2426C2.88258 47.3679 4.4087 48 6 48H156C157.591 48 159.117 47.3679 160.243 46.2426C161.368 45.1174 162 43.5913 162 42V6C162 4.4087 161.368 2.88258 160.243 1.75736C159.117 0.632141 157.591 0 156 0Z" fill="white"/>
<path d="M38.5354 23.1756C38.5022 19.4905 41.5527 17.6977 41.6922 17.6143C39.9646 15.0954 37.2868 14.7513 36.3458 14.7238C34.0968 14.4872 31.9153 16.0696 30.7696 16.0696C29.6011 16.0696 27.8369 14.7467 25.9355 14.7856C23.4887 14.8233 21.1997 16.2399 19.9442 18.4398C17.3534 22.9252 19.2857 29.5167 21.7679 33.1423C23.0096 34.918 24.4605 36.9006 26.3597 36.8308C28.2176 36.7542 28.9117 35.6463 31.1538 35.6463C33.3754 35.6463 34.0271 36.8308 35.964 36.7863C37.958 36.7542 39.2134 35.0026 40.4117 33.2109C41.8466 31.1758 42.4228 29.1714 42.4457 29.0685C42.3988 29.0525 38.5731 27.5924 38.5354 23.1756Z" fill="white"/>
<path d="M34.8766 12.3388C35.8759 11.0891 36.5596 9.38892 36.3698 7.66357C34.9234 7.7276 33.1146 8.66402 32.073 9.88628C31.1515 10.9633 30.3283 12.7287 30.5409 14.3889C32.1656 14.5101 33.8338 13.5691 34.8766 12.3388Z" fill="white"/>
<path d="M65.4237 36.5758H62.8271L61.4048 32.1064H56.4609L55.106 36.5758H52.578L57.4762 21.3599H60.5015L65.4237 36.5758ZM60.976 30.2313L59.6897 26.258C59.5537 25.8522 59.2987 24.8963 58.9225 23.3916H58.8768C58.727 24.0388 58.4858 24.9946 58.1542 26.258L56.8908 30.2313H60.976Z" fill="white"/>
<path d="M78.02 30.9551C78.02 32.8211 77.5157 34.296 76.5073 35.3788C75.604 36.3427 74.4824 36.824 73.1435 36.824C71.6983 36.824 70.6601 36.3049 70.0278 35.2667H69.9821V41.0465H67.5444V29.216C67.5444 28.043 67.5136 26.839 67.4541 25.6042H69.5979L69.734 27.3432H69.7797C70.5926 26.0329 71.8263 25.3789 73.4819 25.3789C74.7762 25.3789 75.8567 25.89 76.7211 26.9133C77.5878 27.9378 78.02 29.2846 78.02 30.9551ZM75.5366 31.0443C75.5366 29.9764 75.2965 29.096 74.814 28.4031C74.2869 27.6805 73.5791 27.3192 72.6919 27.3192C72.0905 27.3192 71.5439 27.5204 71.0557 27.9172C70.5663 28.3174 70.2462 28.8399 70.0964 29.487C70.021 29.7889 69.9832 30.0358 69.9832 30.2302V32.0596C69.9832 32.8577 70.2279 33.5311 70.7173 34.0811C71.2066 34.631 71.8423 34.9054 72.6244 34.9054C73.5425 34.9054 74.2571 34.551 74.7682 33.8444C75.2804 33.1367 75.5366 32.2037 75.5366 31.0443Z" fill="white"/>
<path d="M90.6397 30.9551C90.6397 32.8211 90.1354 34.296 89.1258 35.3788C88.2237 36.3427 87.1021 36.824 85.7632 36.824C84.318 36.824 83.2798 36.3049 82.6487 35.2667H82.6029V41.0465H80.1653V29.216C80.1653 28.043 80.1344 26.839 80.075 25.6042H82.2188L82.3548 27.3432H82.4006C83.2123 26.0329 84.446 25.3789 86.1028 25.3789C87.3959 25.3789 88.4764 25.89 89.3431 26.9133C90.2063 27.9378 90.6397 29.2846 90.6397 30.9551ZM88.1563 31.0443C88.1563 29.9764 87.915 29.096 87.4325 28.4031C86.9054 27.6805 86.2 27.3192 85.3116 27.3192C84.709 27.3192 84.1636 27.5204 83.6743 27.9172C83.1849 28.3174 82.8659 28.8399 82.7161 29.487C82.6418 29.7889 82.6029 30.0358 82.6029 30.2302V32.0596C82.6029 32.8577 82.8476 33.5311 83.3347 34.0811C83.8241 34.6299 84.4598 34.9054 85.2441 34.9054C86.1622 34.9054 86.8768 34.551 87.3879 33.8444C87.9002 33.1367 88.1563 32.2037 88.1563 31.0443Z" fill="white"/>
<path d="M104.749 32.3088C104.749 33.6031 104.299 34.6561 103.397 35.4691C102.406 36.3575 101.026 36.8011 99.2526 36.8011C97.6153 36.8011 96.3027 36.4855 95.3091 35.8532L95.8739 33.8215C96.9441 34.4686 98.1183 34.7933 99.3978 34.7933C100.316 34.7933 101.03 34.5852 101.544 34.1713C102.055 33.7575 102.31 33.2018 102.31 32.5089C102.31 31.8915 102.1 31.3712 101.678 30.9493C101.258 30.5274 100.557 30.1353 99.5784 29.7728C96.9144 28.7792 95.5835 27.3237 95.5835 25.4097C95.5835 24.1589 96.05 23.1333 96.9841 22.3352C97.9148 21.536 99.1565 21.137 100.709 21.137C102.094 21.137 103.244 21.3782 104.162 21.8596L103.553 23.8467C102.695 23.3803 101.726 23.147 100.641 23.147C99.7831 23.147 99.1131 23.3585 98.6329 23.7793C98.227 24.1555 98.0234 24.6139 98.0234 25.157C98.0234 25.7585 98.2555 26.2558 98.722 26.6469C99.1279 27.0082 99.8654 27.3992 100.936 27.8211C102.245 28.3482 103.206 28.9645 103.825 29.6711C104.441 30.3754 104.749 31.2569 104.749 32.3088Z" fill="white"/>
<path d="M112.808 27.4335H110.121V32.7605C110.121 34.1154 110.595 34.7923 111.544 34.7923C111.979 34.7923 112.341 34.7545 112.627 34.6791L112.694 36.5302C112.214 36.7097 111.581 36.8 110.798 36.8C109.836 36.8 109.083 36.5062 108.54 35.9196C107.999 35.3319 107.727 34.3463 107.727 32.9617V27.4313H106.126V25.6019H107.727V23.593L110.121 22.8704V25.6019H112.808V27.4335Z" fill="white"/>
<path d="M124.931 30.9998C124.931 32.6862 124.449 34.0709 123.486 35.1536C122.477 36.2684 121.136 36.8241 119.466 36.8241C117.856 36.8241 116.574 36.2901 115.619 35.2222C114.663 34.1543 114.185 32.8063 114.185 31.1816C114.185 29.4814 114.676 28.0888 115.663 27.006C116.648 25.9221 117.976 25.3801 119.647 25.3801C121.257 25.3801 122.552 25.9141 123.53 26.9831C124.465 28.0202 124.931 29.359 124.931 30.9998ZM122.402 31.0787C122.402 30.0668 122.186 29.199 121.748 28.4752C121.237 27.5994 120.506 27.1626 119.56 27.1626C118.58 27.1626 117.836 27.6005 117.325 28.4752C116.887 29.2001 116.67 30.0817 116.67 31.1244C116.67 32.1363 116.887 33.0041 117.325 33.7267C117.852 34.6025 118.588 35.0393 119.538 35.0393C120.469 35.0393 121.199 34.5934 121.726 33.7038C122.176 32.9664 122.402 32.0894 122.402 31.0787Z" fill="white"/>
<path d="M132.855 27.748C132.613 27.7034 132.356 27.6805 132.086 27.6805C131.229 27.6805 130.566 28.0041 130.099 28.6524C129.693 29.2241 129.49 29.9467 129.49 30.819V36.5759H127.053L127.076 29.0594C127.076 27.7948 127.045 26.6435 126.985 25.6053H129.108L129.197 27.7045H129.264C129.522 26.9831 129.928 26.4022 130.483 25.9666C131.026 25.5744 131.613 25.3789 132.245 25.3789C132.47 25.3789 132.674 25.3949 132.855 25.4235V27.748Z" fill="white"/>
<path d="M143.757 30.571C143.757 31.0078 143.728 31.3759 143.668 31.6766H136.355C136.383 32.7606 136.736 33.5895 137.416 34.1612C138.032 34.6723 138.829 34.9284 139.808 34.9284C140.89 34.9284 141.878 34.7557 142.767 34.4093L143.148 36.1015C142.11 36.5543 140.885 36.7795 139.47 36.7795C137.769 36.7795 136.433 36.2787 135.462 35.2783C134.492 34.2778 134.006 32.9343 134.006 31.249C134.006 29.5946 134.458 28.2168 135.362 27.118C136.309 25.9449 137.588 25.3584 139.198 25.3584C140.779 25.3584 141.977 25.9449 142.789 27.118C143.433 28.0499 143.757 29.2024 143.757 30.571ZM141.432 29.9387C141.448 29.2161 141.289 28.5918 140.959 28.0647C140.537 27.3867 139.889 27.0483 139.016 27.0483C138.219 27.0483 137.571 27.3787 137.076 28.0419C136.67 28.569 136.429 29.2013 136.355 29.9376H141.432V29.9387Z" fill="white"/>
<path d="M60.1703 11.9993C60.1703 13.345 59.7667 14.3581 58.9607 15.0384C58.214 15.6661 57.153 15.9805 55.7787 15.9805C55.0972 15.9805 54.5141 15.9508 54.0259 15.8913V8.53831C54.6627 8.43541 55.3488 8.38281 56.0897 8.38281C57.3988 8.38281 58.3855 8.66751 59.051 9.23691C59.7965 9.88062 60.1703 10.801 60.1703 11.9993ZM58.9069 12.0324C58.9069 11.1601 58.676 10.4912 58.214 10.0247C57.7521 9.55934 57.0775 9.32609 56.1891 9.32609C55.8118 9.32609 55.4905 9.35124 55.2241 9.40384V14.9938C55.3716 15.0166 55.6415 15.0269 56.0336 15.0269C56.9506 15.0269 57.6584 14.7719 58.1569 14.262C58.6554 13.7521 58.9069 13.0089 58.9069 12.0324Z" fill="white"/>
<path d="M66.8693 13.1746C66.8693 14.0036 66.6326 14.6827 66.1592 15.2155C65.663 15.7632 65.0056 16.0365 64.1846 16.0365C63.3934 16.0365 62.7634 15.7747 62.2935 15.2487C61.8247 14.7239 61.5903 14.0619 61.5903 13.2638C61.5903 12.4292 61.8316 11.7443 62.3164 11.2126C62.8012 10.681 63.4529 10.4146 64.2738 10.4146C65.065 10.4146 65.7007 10.6764 66.1821 11.2012C66.6394 11.7111 66.8693 12.3697 66.8693 13.1746ZM65.6264 13.2135C65.6264 12.7161 65.5189 12.2897 65.3051 11.9341C65.0536 11.5042 64.6957 11.2892 64.2304 11.2892C63.749 11.2892 63.3831 11.5042 63.1316 11.9341C62.9166 12.2897 62.8103 12.723 62.8103 13.2352C62.8103 13.7326 62.9178 14.1591 63.1316 14.5147C63.3911 14.9446 63.7524 15.1595 64.2189 15.1595C64.6763 15.1595 65.0353 14.9411 65.2937 14.5032C65.5155 14.1408 65.6264 13.7109 65.6264 13.2135Z" fill="white"/>
<path d="M75.8517 10.5244L74.1652 15.9142H73.0676L72.369 13.5738C72.1918 12.9895 72.0477 12.4087 71.9356 11.8324H71.9139C71.8099 12.4247 71.6658 13.0044 71.4806 13.5738L70.7385 15.9142H69.6283L68.0425 10.5244H69.2739L69.8833 13.0867C70.0308 13.6927 70.152 14.2701 70.2492 14.8166H70.2709C70.3601 14.3661 70.5076 13.7922 70.7157 13.0981L71.4806 10.5256H72.457L73.1899 13.0433C73.3671 13.6572 73.5112 14.2484 73.6221 14.8178H73.6553C73.7365 14.2632 73.8588 13.6721 74.0211 13.0433L74.6752 10.5256H75.8517V10.5244Z" fill="white"/>
<path d="M82.0635 15.9142H80.8653V12.8271C80.8653 11.8758 80.504 11.4001 79.7791 11.4001C79.4235 11.4001 79.1365 11.5305 78.9135 11.7923C78.6929 12.0542 78.5808 12.3629 78.5808 12.7162V15.913H77.3826V12.0644C77.3826 11.5911 77.3677 11.0777 77.3391 10.522H78.3922L78.4482 11.3647H78.4813C78.6208 11.1029 78.8289 10.8868 79.1022 10.7141C79.4269 10.5129 79.7905 10.4111 80.1884 10.4111C80.6915 10.4111 81.1099 10.5735 81.4427 10.8994C81.8566 11.2984 82.0635 11.8941 82.0635 12.6853V15.9142Z" fill="white"/>
<path d="M85.3678 15.9142H84.1707V8.05127H85.3678V15.9142Z" fill="white"/>
<path d="M92.4225 13.1746C92.4225 14.0036 92.1858 14.6827 91.7124 15.2155C91.2162 15.7632 90.5576 16.0365 89.7379 16.0365C88.9455 16.0365 88.3155 15.7747 87.8467 15.2487C87.3779 14.7239 87.1436 14.0619 87.1436 13.2638C87.1436 12.4292 87.3848 11.7443 87.8696 11.2126C88.3544 10.681 89.0061 10.4146 89.8259 10.4146C90.6182 10.4146 91.2528 10.6764 91.7353 11.2012C92.1927 11.7111 92.4225 12.3697 92.4225 13.1746ZM91.1785 13.2135C91.1785 12.7161 91.071 12.2897 90.8572 11.9341C90.6068 11.5042 90.2478 11.2892 89.7836 11.2892C89.3011 11.2892 88.9352 11.5042 88.6848 11.9341C88.4699 12.2897 88.3635 12.723 88.3635 13.2352C88.3635 13.7326 88.471 14.1591 88.6848 14.5147C88.9444 14.9446 89.3057 15.1595 89.7722 15.1595C90.2295 15.1595 90.5874 14.9411 90.8458 14.5032C91.0687 14.1408 91.1785 13.7109 91.1785 13.2135Z" fill="white"/>
<path d="M98.2215 15.9141H97.1456L97.0564 15.2933H97.0232C96.655 15.7884 96.1302 16.0365 95.4488 16.0365C94.94 16.0365 94.5284 15.873 94.2185 15.5483C93.9373 15.2533 93.7966 14.8863 93.7966 14.4506C93.7966 13.7921 94.071 13.2901 94.6233 12.9425C95.1744 12.595 95.9496 12.4246 96.9478 12.4326V12.332C96.9478 11.6219 96.575 11.2675 95.8284 11.2675C95.2967 11.2675 94.828 11.4013 94.4232 11.6665L94.1797 10.8799C94.6805 10.57 95.299 10.4146 96.0285 10.4146C97.4371 10.4146 98.1437 11.1577 98.1437 12.6441V14.629C98.1437 15.1675 98.17 15.5963 98.2215 15.9141ZM96.9775 14.0619V13.2307C95.6557 13.2078 94.9949 13.5702 94.9949 14.3169C94.9949 14.5981 95.0703 14.8085 95.2247 14.9491C95.3791 15.0898 95.5757 15.1595 95.8101 15.1595C96.0731 15.1595 96.3189 15.0761 96.543 14.9103C96.7682 14.7433 96.9066 14.5318 96.958 14.2723C96.9706 14.214 96.9775 14.1431 96.9775 14.0619Z" fill="white"/>
<path d="M105.03 15.9142H103.967L103.911 15.0487H103.877C103.538 15.7073 102.959 16.0365 102.146 16.0365C101.497 16.0365 100.956 15.7816 100.527 15.2716C100.099 14.7617 99.8848 14.0997 99.8848 13.2868C99.8848 12.4144 100.117 11.7078 100.583 11.1681C101.035 10.665 101.588 10.4135 102.247 10.4135C102.971 10.4135 103.477 10.657 103.765 11.1452H103.788V8.05127H104.988V14.4621C104.988 14.9869 105.001 15.4706 105.03 15.9142ZM103.788 13.6412V12.7425C103.788 12.587 103.777 12.4612 103.755 12.3652C103.688 12.0771 103.542 11.8347 103.322 11.6392C103.099 11.4436 102.83 11.3453 102.52 11.3453C102.073 11.3453 101.723 11.5225 101.466 11.8781C101.211 12.2337 101.082 12.6876 101.082 13.2422C101.082 13.775 101.204 14.2072 101.45 14.5399C101.71 14.8943 102.059 15.0715 102.497 15.0715C102.891 15.0715 103.205 14.9241 103.444 14.6279C103.675 14.3547 103.788 14.0254 103.788 13.6412Z" fill="white"/>
<path d="M115.278 13.1746C115.278 14.0036 115.042 14.6827 114.568 15.2155C114.072 15.7632 113.416 16.0365 112.594 16.0365C111.804 16.0365 111.174 15.7747 110.702 15.2487C110.234 14.7239 109.999 14.0619 109.999 13.2638C109.999 12.4292 110.241 11.7443 110.725 11.2126C111.21 10.681 111.862 10.4146 112.684 10.4146C113.474 10.4146 114.111 10.6764 114.591 11.2012C115.048 11.7111 115.278 12.3697 115.278 13.1746ZM114.037 13.2135C114.037 12.7161 113.929 12.2897 113.715 11.9341C113.463 11.5042 113.106 11.2892 112.639 11.2892C112.159 11.2892 111.793 11.5042 111.541 11.9341C111.326 12.2897 111.219 12.723 111.219 13.2352C111.219 13.7326 111.327 14.1591 111.541 14.5147C111.8 14.9446 112.161 15.1595 112.628 15.1595C113.085 15.1595 113.445 14.9411 113.704 14.5032C113.924 14.1408 114.037 13.7109 114.037 13.2135Z" fill="white"/>
<path d="M121.721 15.9142H120.524V12.8271C120.524 11.8758 120.162 11.4001 119.436 11.4001C119.081 11.4001 118.794 11.5305 118.572 11.7923C118.35 12.0542 118.239 12.3629 118.239 12.7162V15.913H117.04V12.0644C117.04 11.5911 117.026 11.0777 116.998 10.522H118.049L118.105 11.3647H118.139C118.279 11.1029 118.487 10.8868 118.759 10.7141C119.085 10.5129 119.448 10.4111 119.847 10.4111C120.349 10.4111 120.767 10.5735 121.1 10.8994C121.515 11.2984 121.721 11.8941 121.721 12.6853V15.9142Z" fill="white"/>
<path d="M129.785 11.422H128.466V14.0403C128.466 14.7057 128.7 15.0385 129.164 15.0385C129.379 15.0385 129.558 15.0202 129.698 14.9824L129.729 15.8914C129.492 15.9806 129.181 16.0252 128.798 16.0252C128.325 16.0252 127.957 15.8811 127.69 15.593C127.423 15.3049 127.29 14.8201 127.29 14.1398V11.422H126.502V10.5244H127.29V9.53657L128.464 9.18213V10.5233H129.784V11.422H129.785Z" fill="white"/>
<path d="M136.129 15.9142H134.929V12.85C134.929 11.8838 134.568 11.4002 133.844 11.4002C133.289 11.4002 132.909 11.6803 132.701 12.2406C132.665 12.3583 132.645 12.5024 132.645 12.6716V15.9131H131.448V8.05127H132.645V11.2996H132.668C133.045 10.7085 133.586 10.4135 134.287 10.4135C134.783 10.4135 135.193 10.5758 135.519 10.9017C135.925 11.3076 136.129 11.9113 136.129 12.7093V15.9142Z" fill="white"/>
<path d="M142.672 12.9643C142.672 13.1792 142.656 13.3599 142.628 13.5074H139.034C139.05 14.0402 139.222 14.4461 139.554 14.7274C139.858 14.9789 140.251 15.1047 140.731 15.1047C141.262 15.1047 141.747 15.0201 142.184 14.8497L142.372 15.6821C141.86 15.9039 141.259 16.0148 140.563 16.0148C139.728 16.0148 139.071 15.769 138.595 15.2773C138.117 14.7857 137.88 14.126 137.88 13.2982C137.88 12.4852 138.101 11.8084 138.546 11.2687C139.01 10.6924 139.638 10.4043 140.43 10.4043C141.205 10.4043 141.794 10.6924 142.192 11.2687C142.513 11.726 142.672 12.292 142.672 12.9643ZM141.529 12.6544C141.538 12.2989 141.459 11.9924 141.297 11.734C141.089 11.4013 140.772 11.2344 140.343 11.2344C139.952 11.2344 139.633 11.3967 139.39 11.7226C139.191 11.9821 139.073 12.292 139.034 12.6544H141.529Z" fill="white"/>
</svg>
