<svg width="72" height="72" viewBox="0 0 72 72" fill="none" xmlns="http://www.w3.org/2000/svg">
<g opacity="0.2">
<path d="M59.8339 30.2582C59.1193 25.4288 56.6968 20.224 53.2708 15.4628C59.8958 7.61236 66.5285 4.1084 66.5285 4.1084C84.8607 46.5917 51.2508 66.2769 51.2508 66.2769C51.0573 66.2926 50.8716 66.3005 50.6807 66.3136C58.7658 56.8569 61.9338 44.4631 59.8339 30.2582Z" fill="white"/>
<path fill-rule="evenodd" clip-rule="evenodd" d="M29.9157 50.4892C24.0956 47.022 15.2313 44.3789 7.46602 44.2241C4.79332 44.1716 2.24703 44.4078 0 45.0167C0 45.0167 3.65561 56.6362 18.2755 63.61C30.9063 69.6337 47.0612 66.8647 47.0612 66.8647C47.0619 66.8639 47.0627 66.8632 47.0634 66.8625C46.9781 66.8769 44.7746 67.246 41.4032 67.4158C40.4951 63.0405 40.0075 58.442 40.0075 53.6966C40.0075 39.4266 44.3826 26.4794 51.4897 16.9728C46.6705 10.2816 39.7801 4.53043 33.3571 2.25C28.7986 14.6753 24.4413 30.9851 27.6067 44.0902C28.1459 46.3265 28.8992 48.4734 29.9157 50.4892Z" fill="white"/>
<path fill-rule="evenodd" clip-rule="evenodd" d="M51.4895 16.9727C51.5792 17.0972 51.6682 17.2221 51.7565 17.3473C54.7697 21.6229 56.929 26.2555 57.5714 30.6072C59.9578 46.7438 55.1773 58.4211 47.4146 66.4894C47.3653 66.5407 47.3167 66.5935 47.2682 66.6462C47.201 66.7192 47.1338 66.7923 47.064 66.862C46.988 66.8749 44.7821 67.2452 41.4033 67.4154C40.4952 63.0401 40.0076 58.4416 40.0076 53.6962C40.0076 39.4263 44.3826 26.4792 51.4895 16.9727Z" fill="white" fill-opacity="0.8"/>
</g>
</svg>
