<svg width="48" height="48" viewBox="0 0 48 48" fill="none" xmlns="http://www.w3.org/2000/svg">
<rect width="48" height="48" rx="4" fill="#3D5C9B"/>
<path d="M15.6667 28.3333C16.88 28.3333 17.9773 27.856 18.8093 27.0933L27.156 31.8627C27.064 32.2293 27 32.6053 27 33C27 35.5733 29.0933 37.6667 31.6667 37.6667C34.24 37.6667 36.3333 35.5733 36.3333 33C36.3333 30.4267 34.24 28.3333 31.6667 28.3333C30.4533 28.3333 29.356 28.8107 28.524 29.5733L20.1773 24.804C20.2613 24.4747 20.3147 24.1347 20.3213 23.78L28.5227 19.0933C29.356 19.856 30.4533 20.3333 31.6667 20.3333C34.24 20.3333 36.3333 18.24 36.3333 15.6667C36.3333 13.0933 34.24 11 31.6667 11C29.0933 11 27 13.0933 27 15.6667C27 16.0613 27.064 16.4373 27.156 16.804L19.5773 21.136C18.744 19.8533 17.3053 19 15.6667 19C13.0933 19 11 21.0933 11 23.6667C11 26.24 13.0933 28.3333 15.6667 28.3333ZM31.6667 31C32.7693 31 33.6667 31.8973 33.6667 33C33.6667 34.1027 32.7693 35 31.6667 35C30.564 35 29.6667 34.1027 29.6667 33C29.6667 31.8973 30.564 31 31.6667 31ZM31.6667 13.6667C32.7693 13.6667 33.6667 14.564 33.6667 15.6667C33.6667 16.7693 32.7693 17.6667 31.6667 17.6667C30.564 17.6667 29.6667 16.7693 29.6667 15.6667C29.6667 14.564 30.564 13.6667 31.6667 13.6667ZM15.6667 21.6667C16.7693 21.6667 17.6667 22.564 17.6667 23.6667C17.6667 24.7693 16.7693 25.6667 15.6667 25.6667C14.564 25.6667 13.6667 24.7693 13.6667 23.6667C13.6667 22.564 14.564 21.6667 15.6667 21.6667Z" fill="white"/>
</svg>
