<svg width="27" height="22" viewBox="0 0 27 22" fill="none" xmlns="http://www.w3.org/2000/svg">
<path d="M24.1773 5.66264C24.1946 5.89598 24.1946 6.12798 24.1946 6.35998C24.1946 13.46 18.7906 21.6413 8.91463 21.6413C5.87196 21.6413 3.04529 20.76 0.666626 19.2293C1.09863 19.2786 1.51463 19.296 1.96396 19.296C4.47463 19.296 6.78529 18.448 8.63196 17.0013C6.27063 16.952 4.29196 15.4053 3.60929 13.2773C3.94129 13.3266 4.27463 13.36 4.62396 13.36C5.10529 13.36 5.58929 13.2933 6.03863 13.1773C3.57596 12.6786 1.73196 10.5173 1.73196 7.90664V7.83998C2.44796 8.23864 3.27863 8.48798 4.15863 8.52131C2.71196 7.55864 1.76396 5.91198 1.76396 4.04931C1.76396 3.05198 2.02929 2.13731 2.49463 1.33998C5.13863 4.59731 9.11329 6.72664 13.5693 6.95998C13.4866 6.55998 13.436 6.14531 13.436 5.72931C13.436 2.76931 15.8306 0.358643 18.8066 0.358643C20.3533 0.358643 21.7493 1.00664 22.7306 2.05464C23.944 1.82131 25.1066 1.37198 26.1386 0.757309C25.74 2.00398 24.8906 3.05198 23.7773 3.71731C24.8586 3.59998 25.9066 3.30131 26.8693 2.88531C26.1386 3.94931 25.2253 4.89731 24.1773 5.66264Z" fill="#94D9EC"/>
</svg>
