<?xml version="1.0" encoding="UTF-8"?>
<!DOCTYPE svg PUBLIC "-//W3C//DTD SVG 1.1//EN" "http://www.w3.org/Graphics/SVG/1.1/DTD/svg11.dtd">
<svg xmlns="http://www.w3.org/2000/svg" version="1.1" width="32px" height="32px" style="shape-rendering:geometricPrecision; text-rendering:geometricPrecision; image-rendering:optimizeQuality; fill-rule:evenodd; clip-rule:evenodd" xmlns:xlink="http://www.w3.org/1999/xlink">
<g><path style="opacity:0.613" fill="#000000" d="M 11.5,-0.5 C 14.1667,-0.5 16.8333,-0.5 19.5,-0.5C 24.3034,3.8493 24.6367,8.51596 20.5,13.5C 18.057,15.0553 15.3903,15.722 12.5,15.5C 12.1583,14.6618 11.4916,14.3284 10.5,14.5C 6.29921,9.12828 6.63254,4.12828 11.5,-0.5 Z M 14.5,1.5 C 19.0555,2.27418 20.8889,4.94085 20,9.5C 15.4468,13.9034 12.2802,13.0701 10.5,7C 10.9009,4.43997 12.2342,2.60664 14.5,1.5 Z"/></g>
<g><path style="opacity:0.656" fill="#000000" d="M 10.5,14.5 C 10.8417,15.3382 11.5084,15.6716 12.5,15.5C 13.2739,16.1471 14.2739,16.4805 15.5,16.5C 26.4817,12.6715 30.9817,16.6715 29,28.5C 28.3021,29.6906 27.4687,30.6906 26.5,31.5C 19.1667,31.5 11.8333,31.5 4.5,31.5C 0.683355,26.5441 0.683355,21.3774 4.5,16C 6.34528,14.872 8.34528,14.372 10.5,14.5 Z M 7.5,17.5 C 9.99733,18.7429 12.664,19.4095 15.5,19.5C 23.6161,15.7668 27.1161,18.4335 26,27.5C 25.2496,28.1258 24.4162,28.6258 23.5,29C 17.3877,29.9094 11.3877,29.576 5.5,28C 3.95699,24.093 4.62365,20.593 7.5,17.5 Z"/></g>
</svg>
